<?xml version="1.0" encoding="utf-8"?>
<!-- Generator: Adobe Illustrator 25.4.1, SVG Export Plug-In . SVG Version: 6.00 Build 0)  -->
<svg version="1.0" id="Layer_1" xmlns="http://www.w3.org/2000/svg" xmlns:xlink="http://www.w3.org/1999/xlink" x="0px" y="0px"
	 viewBox="0 0 917.8 626.5" style="enable-background:new 0 0 917.8 626.5;" xml:space="preserve">
<style type="text/css">
	.st0{fill:#F4F59C;}
	.st1{fill:#009640;}
</style>
<path d="M774.4,279.1c0.4,4.5,0.7,8.6,1.3,12.7s1.5,8.3,2.2,12.5s2.5,6.1,6.8,6.7c2.4,0.3,4.8,0.4,7.2,0.6c6,0.7,12,1.3,18,2
	c0.8,0.1,1.6,0.3,2.4,0.6c2,0.6,3.2,2.8,2.5,4.8c-0.2,0.7-0.6,1.3-1.2,1.8c-1.9,1.9-4.5,2.8-7.2,2.6c-2.8-0.2-5.7,0.8-8.6,1
	c-4.1,0.4-8.1,0.7-12.2,1.1c-3.3,0.3-4.1,1.7-3.2,4.9c2.9,10.1,5.2,20.5,8.6,30.4c3,8.8,3.3,18.3,7.6,26.8
	c3.8,7.6,6.5,15.8,9.8,23.7c1.6,3.8,3.8,7.4,5.7,11.1c0.5,0.9,0.9,1.8,1.4,2.6c1,1.5,0.6,3.5-0.9,4.5c-0.1,0-0.1,0.1-0.2,0.1
	c-0.9,0.6-3,0.2-4-0.5c-2.5-1.9-4.9-4.1-6.9-6.5c-5.5-6.9-10.4-14.2-13.8-22.5c-1.3-3.3-3.7-6.1-5.1-9.4s-2.5-6.8-3.8-10.2
	c-0.5-1.4-1.1-2.8-1.5-4.2c-1-3.4-2-6.8-3-10.2c-1.2-4.1-2.4-8.1-3.4-12.2c-1.1-4.7-1.9-9.4-3-14.1c-0.7-3.7-1.7-7.3-2.8-10.8
	c-0.7-1.3-2-2.1-3.4-2.2c-6.6-0.1-10.5,4.4-10.3,11c0.2,5.9-0.3,11.8-0.4,17.7c-0.1,5.4,0,10.8,0,16.2c0,0.6,0.2,1.2,0.1,1.7
	c-0.2,6.4-0.3,12.7-0.8,19.1c-0.5,7-1.2,13.9-1.9,20.9c-0.1,1.2-0.4,2.3-0.9,3.4c-0.7,1.5-1.4,3.6-3.6,3.3s-3.6-2-4-4.2
	c-0.9-4.6-1.7-9.1-2.6-13.7c-0.8-3.9-1.9-7.6-1.4-11.8c0.3-2.7-1-5.5-1.1-8.4c-0.2-3.8,0.1-7.6,0-11.4c0-3-0.3-5.9-0.5-8.9
	c-4.5,0-8.5,0-12.6,0c-4.9,0-9.8,0.3-14.7,0.2c-2.7-0.1-4,1.2-4.1,3.5c-0.1,4.2,0,8.5,0.2,12.7c0.2,5.2,1,10.5,0.9,15.7
	c-0.1,3.9-1.4,7.6-1.9,11.5c-1,7.8-1.9,15.7-3,23.5c-0.2,1.3-0.9,2.5-2,3.2c-1.7,0.8-3.5-0.1-4.3-1.9c-0.6-1.3-1-2.6-1.2-4
	c-0.9-6.8-2.8-13.5-2.3-20.5c0.3-4-0.8-8.1-1.2-12.1c-0.1-0.9-0.2-1.8-0.2-2.7c0.1-7.8,0.3-15.6,0.5-23.4c0.1-3.4-1.7-5.3-5.1-5
	c-0.7,0-1.5,0-2.2,0c-6.4-0.2-12.8-0.3-19.2-0.7c-4.4-0.3-8.8-0.9-13.1-1.5c-1.2-0.3-2.4-0.7-3.4-1.4c-2.8-1.5-3.5-3.2-2.9-6.2
	c0.4-1.8,3-3.6,5.5-3.6c5.1,0,10.2,0.2,15.2,0.1c6.7-0.1,13.3-0.3,20-0.5c3.7-0.1,5.1-1.1,5.4-4.7c0.3-4,0.2-8-0.1-11.9
	c-0.2-2.5-2-3.7-4.8-3.6c-3.5,0.1-7,0.5-10.5,0.2c-2.6-0.1-5.2-0.8-7.5-2c-7.6-4.5-11.1-11.4-11-20.2c0.1-11.4,0.1-22.9,0.1-34.4
	c0-4-0.4-8.1-0.2-12.1c0.2-4.5,2.3-8.1,6.6-9.7c2.8-1.1,5.7-1.8,8.7-2.1c6.7-0.4,13.5-0.4,20.2-0.5c6.3-0.1,12.6,0,18.9,0
	c5.4,0,10.8-0.1,16.2,0.1c6.3,0.1,11.8,6,11.8,12.2c0,11.7,0,23.4-0.1,35.1c0,6.5,0,13-0.4,19.4c-0.3,4.7-3.3,8-7.2,10.5
	c-5.2,3.5-10.9,4.1-16.9,3.7c-6.8-0.4-8.4,1.3-8.2,8.2c0.1,3.2,0.4,6.3,1,9.4c0.1,0.7,1.5,1.6,2.3,1.6c7.6,0.4,15.3,0.7,22.9,0.7
	c3.6,0,3.9-0.4,4.2-3.9c0.4-4.9,0.4-9.8,1-14.7c1-8.1,8.9-17.8,18.1-19c2.2-0.3,4.3-1.3,6.5-1.7c1.7-0.3,1.9-1.3,1.6-2.7
	c-0.4-2.1-0.9-4.2-1.3-6.4c-1-5.9-2-11.8-2.9-17.7c-0.3-2.1-1.2-2.9-3.4-2.8c-2.7,0.1-5.3-0.2-7.9-0.8c-5.4-1.5-7.6-6.1-5.4-11.1
	c0.6-1.1,1.6-1.9,2.8-2.2c2.2-0.2,4.5-0.3,6.7-0.2c4.3-0.1,5-1.2,4.8-5.5c-0.3-5.1,0-10.1-0.2-15.2c-0.2-4.8-0.6-9.6-0.9-14.4
	c-0.4-6-1.2-11.9-1.2-17.8c-0.1-5,3.8-9.1,8.8-9.2c0.7,0,1.3,0,2,0.2c2.1,0.4,4.7,3.4,4.9,5.6c0.7,6.6,1.6,13.2,2,19.8
	c0.4,8,0.2,16.1,0.3,24.2c0,2.8,0.3,5.6,0.6,8.4c0.2,2.4,2,3,4.1,3.1c8.2,0.5,16.5-0.3,24.5,1.6c2.4,0.6,4.6,1.6,6.6,3
	c1.8,1.2,1.5,3.1,0.2,4.8c-1.5,1.9-3.8,3.1-6.2,3.2c-3.4,0.1-6.8,0.4-10.1,0.9C786.6,279.3,780.9,280,774.4,279.1z M673.1,296.5
	c0.3,3.7,0.5,6.7,0.9,9.6c0.7,6.2,8.7,10.8,14.3,8.3c0.8-0.4,1.4-1.1,1.6-1.9c0.3-3.9,0.5-7.8,0.4-11.7c-0.1-2.8-1.7-4.3-3.9-4.3
	C682.2,296.4,677.9,296.5,673.1,296.5z M722.8,301.7l-0.5-0.1c0-1,0-2,0-3c0.1-1.8-1.1-3.5-2.9-3.9c-4-1.4-7.5,0-11,1.5
	c-0.8,0.3-1.4,1.9-1.4,2.9c0,3.5,0.1,7,0.4,10.4c0.2,0.9,0.8,1.7,1.7,2.2c3.9,1.9,10.3,0,12.2-3.9
	C722.2,306,722.3,303.8,722.8,301.7z M680.2,280.3c2.5-0.2,4.7-0.4,6.9-0.7c1.7-0.1,3-1.4,2.9-3.1c0-0.1,0-0.2,0-0.3
	c-0.1-2.7-0.1-5.5-0.4-8.2c0-1.8-1.5-3.3-3.3-3.3c-0.1,0-0.2,0-0.4,0c-2,0.1-4,0.2-6,0.5c-2.7,0.3-6.2,3.2-6.5,5.2s-0.2,3.7-0.5,5.5
	c-0.4,2.6,0.6,3.9,3.2,4C677.6,279.9,679,280.1,680.2,280.3z M707.2,280.2c3.6-0.5,7.2-1.1,10.8-1.5c4.6-0.5,5-0.8,4.3-5.4
	c-0.3-2-1-3.8-2.1-5.5c-1-1.3-2.4-2.2-4-2.6c-1.7-0.4-3.4-0.6-5.2-0.5c-2.8-0.1-4.5,1.2-4.5,3.6C706.7,272.1,707,276,707.2,280.2
	L707.2,280.2z"/>
<path d="M221.3,295.2c-1.4,7,0.8,11.5,7.5,14.5c4.9,2.2,9.3,5.5,12.8,9.7c2.9,3.3,6,6.4,8.6,10c1.5,2,2.4,4.3,2.9,6.8
	c1.6,8.5,3,17,2.8,25.8c-0.1,5.5,0.2,11,0.4,16.5c0.5,9.8,1.4,19.5,1.5,29.3c0,6.5-1.2,13-2.1,19.5c-0.3,1.5-1,2.8-2,4
	c-1.6,2.3-3.3,2-4.9-0.4c-3.7-5.5-4.5-11.6-5.1-18c-0.3-2.9-1.4-5.8-1.7-8.7c-0.7-5.6-1.4-11.2-1.8-16.8
	c-0.8-12.3-1.5-24.5-2.1-36.8c-0.1-3,0.5-6,0.1-8.9c-0.4-2.4-1.3-4.7-2.6-6.8c-1.9-3-4.1-5.9-6.4-8.6c-1.4-1.4-3-2.5-4.8-3.2
	c-1.8-0.6-3.6-1.1-5.5-1.5c-6.1-1.8-9.6-7.3-9.1-13.7c0.2-3.5,0.2-6.9,0-10.4c0-0.9-0.7-2.5-1.3-2.6c-1.1-0.1-2.2,0.3-3.1,1
	c-0.7,0.7-1.1,1.7-1.1,2.6c-0.1,3.5-0.2,7,0,10.5c0.3,5.6-1.6,9.7-6.9,12c-7.3,3.2-12.6,8.8-17.3,15.1c-2.4,3.3-3.8,7.3-3.9,11.4
	c-0.2,4.1-1.4,8.2-2,12.3c-0.5,4-0.7,8-1.2,11.9c-1.3,10.1-2.8,20.2-4.1,30.3c-0.4,3.1-0.5,6.2-0.9,9.3c-0.4,2.6-1,5.2-1.6,7.8
	c-0.7,2.8-1.4,5.6-2.2,8.4c-0.2,1.1-0.5,2.1-0.9,3.1c-0.9,1.9-2.7,2.4-4.3,1.1c-2.7-2-4.1-5.4-3.6-8.8c0.2-0.7,0.3-1.5,0.3-2.2
	c-0.6-9.6,1.1-19,1.5-28.5c0.3-7.5,0.3-15.1,0.8-22.6c0.6-9.6,1.7-19.2,2.3-28.8c0.3-5.3,2.3-10.3,5.7-14.4c5-6.1,10.3-12,17.1-16.2
	c2.8-1.7,4.6-3.8,4.1-7.3c0-0.3,0-0.7,0-1c-0.2-6.7,0.7-5.7-5.9-6.6c-6.5-0.8-11.9-5.2-14-11.4c-1.3-3.7-2-7.5-1.9-11.4
	c-0.1-14.2,0.3-28.5,0.3-42.7c0-6.9-0.1-13.8,1.1-20.6c0.8-4.2,6-5.7,8.5-4.1c1.9,1.2,2,3.1,2.3,5c0.9,5.8,2.5,11.4,4.8,16.8
	c0.5,0.7,1.3,1.1,2.2,1.1c6.7,0.2,13.4,0.2,20.1,0.3c6.2,0.1,12.5,0.4,18.7,0.5c1.8,0,3.7,0,5.5,0c1.2,0.2,2.3-0.7,2.5-1.9
	c0-0.1,0-0.2,0-0.2c0.5-2.8,1.2-5.5,1.8-8.3c0.6-3.1,2.2-4.6,5.1-5c3.1-0.4,5.4,0.5,6.5,3.3c0.7,2.2,1.2,4.5,1.3,6.8
	c0.4,4.1,0.7,8.2,0.9,12.4c0.3,5.5,0.7,10.9,0.8,16.4c0.2,7.2,0.4,14.5,0.2,21.7c0,5.2-1.9,10.2-5.3,14.2c-4.2,5-10.5,7.7-17,7.3
	C224.4,295.1,222.9,295.2,221.3,295.2z M194.3,245.3c-1.8,0.2-4.4,0.3-7,0.8c-3.8,0.7-5.4,2.7-5.4,6.6c0,5.5,0,11,0.2,16.4
	c0.2,7.3,3,9.9,10.4,10c0.3,0,0.7,0,1,0c3.1,0.4,6.2,1,9.3,1.3c1.9,0.2,3.9,0.2,5.9,0c4.3-0.4,8.7-1,13-1.5c1.6-0.1,3.1-0.5,4.5-1.1
	c3.4-1.8,5.6-4.2,5.3-8.7c-0.4-4.9,0.8-9.8,0.4-14.7c-1-11.7-4.6-12.5-13.1-10.7c-0.7,0.1-1.3,0.3-1.9,0.6
	c-4.7,2.2-9.7,2.1-14.7,1.7L194.3,245.3z"/>
<path d="M464.5,434.5c-2.1-0.4-3.7-2.1-4-4.2c-0.7-2.8-1.2-5.7-1.4-8.6c-0.3-12-0.8-24-0.5-35.9c0.3-8.9,1.1-17.7,2.4-26.5
	c0.9-6.5,2.9-12.7,4.4-19.1c0.1-0.5,0.3-1,0.4-1.4c1.3-5.4,0.5-6.4-4.9-7.5c-3-0.7-5.8-1.8-8.6-3.2c-1-0.5-2.5-2.2-2.3-2.9
	c0.7-1.5,1.7-2.7,3.1-3.6c1.1-0.7,2.7-0.8,4.1-1.1c3.4-0.8,6.9-1.3,10.2-2.4c1.6-0.6,2.9-1.7,3.8-3.1c1-1.8,1.7-3.8,2-5.9
	c1.7-8.6,6.5-15.5,11.4-22.4c3.3-4.6,7.6-8.5,12.6-11.1c6.3-3.3,9-9.2,9.1-16.1c0.1-7-0.2-13.8-0.4-20.7c-0.1-1-0.3-2-0.5-3
	c-0.4-2.6-1.7-3.9-4.5-3.8c-4.2,0.2-8.3,0.1-12.4-0.4c-6.9-1.1-13.7-2.6-20.4-4.4c-2-0.6-3.6-2.8-5.3-4.4c-0.2-0.7-0.1-1.4,0.4-2
	c1.9-1.2,3.9-2.1,6-2.8c3.3-0.8,6.7-1.4,10.1-1.9c1.9-0.3,3.8-0.4,5.7-0.5c4.5-0.3,9.1-0.3,13.6-0.8c5.2-0.8,10.6,0.2,15.2,2.8
	c3.6,2.1,4.7,6.1,6.8,9.3c2.7,4.2,2,8.8,2.1,13.3c0.1,2.1,0.4,4.1,0.5,6.2c0.7,11.5-0.2,22.7-6.2,33.1c-2.2,3.9-5.5,7-9.5,9.1
	c-7.5,4.2-13.3,10.8-16.3,18.8c-1,2.5-2.2,4.8-3.4,7.2c-0.9,1.9,0.1,2.6,1.8,2.8c1,0.1,2,0,3,0c3.1,0,6.1,0.1,9.1,0.5
	c10.7,2,17.2,9.6,17.7,20.7c0.4,8.7,0.5,17.4,0.6,26.2c0.1,4.6,0.6,5.5,5.2,5.8s9-0.1,13.4,0.5c7.8,0.9,15.6,2.2,23.4,3.9
	c6.6,1.5,13,4,19.4,6.2c4.5,1.5,9,2.8,13.4,4.7c11.1,4.8,19.9,12.3,25.1,23.5c1.3,2.8,2.2,5.9,3.3,8.8s2,6,3.1,8.9
	c0.7,1.5,0.1,3.3-1.3,4.1c-1.5,1.1-2.7,0.5-3.7-0.6c-1-1-1.8-2.2-2.4-3.5c-3.1-6.6-8.4-11.2-13.9-15.4c-8.3-6.3-17.2-11.7-27.5-14.8
	c-13-3.9-25.9-8.4-39.7-8.9c-5.3-0.2-10.6-0.1-15.8-1c-12.9-2.1-17-6.3-18.8-20.4c-0.9-6.7,0.1-13.6,0.2-20.4c0-1,0-2-0.2-3
	c-1.4-7.3-5.8-10.8-13.7-11.2c-0.8,0-1.5,0-2.2,0c-3.8,0-5,0.9-5.6,4.6c-1.7,10.5-3.5,21-4.9,31.5c-0.7,5-0.5,10.1-1,15.2
	c-1.3,12.7-3.6,25.2-7,37.5c-0.8,2.9-1.5,5.8-2.3,8.7C466,431.3,465.2,432.8,464.5,434.5z"/>
<path d="M531,337.1c0.5-4.4,1.2-8.9,1.4-13.3c0.4-6.8,0.8-13.6,0.6-20.4c-0.3-9.6-1.3-19.2-1.7-28.9c-0.2-5.6,0.3-11.3,0.3-17
	c0.1-8.5,0-16.9,0-25.4c0-8.1-0.2-16.1,0-24.2c0.1-3.9,3.6-5.1,7.5-3.1c3.6,1.8,6.2,5.3,6.8,9.4c0.5,2.6,1.2,5.1,1.9,7.7
	c0.1,0.6,0.4,1.1,0.5,1.7c0.9,3.9,0.8,4.1,4.8,4.4c3.5,0.2,7.1,0,10.7,0c6.5,0,13-0.1,19.5,0c8.5,0.1,17.1,0.2,25.6,0.5
	c4.2,0.1,7-1.7,8.5-5.5c1.1-2.7,2-5.5,3.2-8.1s2.8-3,5.1-1.1c3.3,2.6,5.2,6.5,5.2,10.6c0.1,6.7-0.1,13.5-0.1,20.2
	c0,9.5-0.1,19.1-0.1,28.7c0,4.2-0.2,8.3-0.3,12.5c-0.1,5.7-0.1,11.4-0.1,17.1c0,2.7-0.2,5.4-0.3,8.2c0,3.6,0,7.3,0,11
	c0,9.7,0.1,19.5-0.1,29.2c-0.1,2.4-0.9,4.7-2.3,6.7c-4.4,5.9-9.8,9.6-17.9,9.2c-9.9-0.5-19.9,0.3-29.9,0.3c-8.3,0-16.6-0.4-24.8-0.6
	c-1.2-0.1-2.5-0.1-3.7-0.1c-6.9,0.6-14-4.1-16.8-10.4c-2.8-6.3-3.1-12.5-2.7-19.1L531,337.1z M565.5,245.8v-0.7
	c-3.2,0-6.5,0.1-9.7,0c-3.2-0.1-6.8,1.9-7.2,5.1c-0.6,4.1-1.4,8.3-0.9,12.4c0.9,7.3,0.3,14.6,0.3,21.9c0,1.9-0.2,3.8-0.2,5.7
	c0,3.8,0.1,7.6,0.1,11.4c0,1.8,0.1,3.6,0,5.5c0,6.4,0,12.8-0.2,19.1c-0.2,5.6-0.7,11.1-0.9,16.7c0,1.4,0.6,2.8,1.6,3.8
	c3.4,2.5,7.6,3.7,11.7,3.3c4.1-0.4,8.3-0.5,12.4-0.5c8.1,0.1,16.3,0.3,24.4,0.5c2.2,0,4.5,0.2,6.7,0.1c7-0.4,9.9-4.1,9.7-10.9
	c-0.3-8.8-0.1-17.6-0.1-26.4s0.1-17.4,0.1-26.1c0-10.5-0.1-20.9,0-31.4c0.1-6-3.6-10.1-9.6-10c-6.3,0.1-12.6,0.4-18.9,0.5
	S571.9,245.8,565.5,245.8z"/>
<path d="M346.9,263l-19.1-1.7c-2.7-0.2-5.5-0.3-8.2-0.8c-1.5-0.3-2.8-0.9-4-1.9c-2-1.6-1.8-3.5,0.6-4.6c3.8-1.9,7.6-3.5,11.6-5
	c1.8-0.5,3.8-0.6,5.7-0.2c3.7,0.6,7.5,0.2,11-1.1c0.9-0.4,1.7-1.1,2.1-2.1c0.5-1.6,0.8-3.2,0.8-4.9c0-7.4-0.3-14.8-0.2-22.2
	c0-4.9,0.8-9.6,3.8-13.7c1.9-2.5,3.3-2.4,4.7,0.4c0.2,0.6,0.5,1.2,0.9,1.8c7,9,7,19.6,7.4,30.2c0.1,2.1,0.2,4.2,0.1,6.2
	c-0.2,2.6,1.1,3.7,3.5,3.9c4.3,0.4,8.6,0.7,12.9,1.2c3.8,0.5,7.5,1.3,11.3,2.1c3.3,0.7,4.4,1.8,4.5,4.4c0.1,2.4-1.1,4.3-4.1,4.9
	c-4.7,1-9.5,1.5-14.2,2.2c-1.1,0.2-2.3,0.4-3.4,0.6c-2.2,0.4-4.4,0.7-6.6,0.8c-3.2,0.1-4,0.7-4.2,3.9c-0.2,3.1-0.1,6.2-0.1,9.2
	c0,5.4,0,10.8,0,16.2s0.2,11,0.2,16.5c0,3.5-0.3,7-0.2,10.5c0.1,5.5,0.9,11,0.4,16.5c-0.7,8.8-0.2,17.6,0.1,26.4
	c0.1,2.2-0.5,4.5-0.5,6.7c0.1,6,0.5,11.9,0.5,17.9c0,5.6-0.2,11.3-0.8,16.9c-0.7,6.9-1.9,13.8-3,20.7c-0.7,4.1-1.6,8.1-2.5,12.1
	c-0.1,0.7-0.4,1.3-0.8,1.8c-0.9,0.8-2.1,1.9-3,1.7c-1.2-0.3-2.3-1.2-2.7-2.4c-1.6-8.1-4.9-15.9-3.9-24.4c0.2-2.1-0.8-4.3-0.8-6.4
	c0-7.7,0.3-15.5,0.4-23.2c0-3.9-0.2-7.8-0.2-11.7c0-3.1,0.3-6.1,0.3-9.2c0-7.6,0-15.3,0-22.9c-0.1-7.8-0.3-15.6-0.4-23.4
	c0-4,0.4-8,0.4-12c0.1-9.5,0-19,0-28.4L346.9,263z"/>
<path d="M126.8,281.4c2.1,0,4.2,0.2,6.2,0c4.1-0.4,4.9-1.6,4.7-5.7c-0.1-2.3,0-4.7,0.5-7c0.5-2.8,2.5-4.1,5.4-4.1
	c5.9,0,10.7,3,12,8.2c0.6,2.5,0.1,5.4-0.2,8.1c-1,8.4-2.2,16.8-3.2,25.2c-0.3,2.4-0.7,5.3,0.4,7.1c2.8,4.8,1.1,9.5,1,14.4
	c-0.1,6.5,0.2,13.1,0.4,19.7c0.2,6.1-1.4,11.3-6.8,14.9c-4.1,2.7-8.2,4.7-13.2,4.6c-5.9-0.2-11.8,0.4-17.6-0.3
	c-7.3-0.9-11.7-5.9-13.5-12.7c-1-4-1-8.2-0.9-12.4c0.1-4.9,0.6-9.7,1-14.6c0.2-2.1,0.9-4.3,0.8-6.4c-0.1-4-0.7-7.9-1-11.9
	c-0.4-7.3-0.8-14.6-1.2-21.9c-0.3-7-0.5-13.9-0.7-20.9c-0.1-4.2-0.3-8.5-0.2-12.7c0.1-4.2,3.4-6.6,7.5-5.9c6.2,1,9.4,4.2,9.7,10.5
	c0.4,7,0.4,14.1,0.4,21.2c0,2.4,1,3,3.1,2.9c1.8-0.1,3.5,0,5.2,0L126.8,281.4z M138.2,316.4h-0.4c-0.1-2-0.2-4-0.4-6
	c-0.1-2.1-0.5-4.1-1.1-6.1c-0.6-1.8-1.7-3.3-3.2-4.5c-6.5-4.4-14-0.7-14.8,7.1c-0.6,6.3-1.4,12.5-1.5,18.8c-0.1,5.2-2,11,2.9,15.4
	c0.5,0.5,0.5,1.4,0.9,2c1.1,1.9,2.5,3.5,4.9,3.9c1.6,0.3,3.3,0.6,4.8,1c3.5,0.9,6.1-0.4,6.6-3.9c0.3-3.4,0.4-6.8,0.2-10.1
	c0-2.1-0.2-4.1,0-6.2C137.4,324,137.9,320.2,138.2,316.4L138.2,316.4z"/>
<path d="M417.7,429.7c-2.9-0.8-5.1-3.1-5.7-6c-2.6-9.5-5-19.1-5.6-29c-0.7-12.7-1.1-25.4-1.5-38.1c-0.2-8.2-0.3-16.4-0.5-24.6
	c0-0.7,0.1-1.3,0.2-2c0.8-4.7,0.9-9.6,0.3-14.4c-0.7-4.7,0-9.6,0.1-14.4c0-2.6,0-5.3-0.1-8c-0.1-1.9-1-2.8-3.2-2.7
	c-5,0.4-10.1,0.5-15.2,0.6c-3.8,0.1-7.5-1.5-10-4.3c-5-5.4-0.9-10.6,3.9-11.5c5.5-1,11.2-0.4,16.9-0.5c2.4,0,4.8,0,7.2,0
	c10.1,0.3,20.3,0.4,30.4,1c2.5,0.1,5,1.5,7.2,2.8c2,1.2,2.7,4.8,1.8,6.8c-1,2.2-3,2.9-5.3,3.2c-4.6,0.5-9.2,1-13.9,1.5
	c-1.6,0.2-2.5,0.8-2.5,2.6c0,6.1-0.2,12.3-0.3,18.4c0,1.6-0.1,3.2-0.1,4.7c0,10-0.1,20.1,0,30.1c0,8.5,0.3,17,0.2,25.4
	c-0.1,10.2-0.5,20.4-0.8,30.6c0,1.4-0.4,2.8-0.5,4.2c-0.3,4.5-0.3,9-0.9,13.5C419.8,423,418.6,426.2,417.7,429.7z"/>
<path d="M296,322.6c-1,0.2-1.9,0.5-2.8,0.9c-6.3,3.7-13.3,4.5-20.3,5.1c-0.2,0.1-0.5,0.1-0.8,0c-1.4-0.7-2.9-1.4-4.3-2
	c0.8-1.3,1.2-3,2.3-3.8c6-4.5,12.1-8.8,18.2-13.1c1.4-0.8,2.7-1.9,3.7-3.2c3.8-6.2,7.7-12.4,8.6-20c0.7-5.1,1.7-10.1,2.9-15.1
	c0.6-3.1,3-5.6,6.1-6.4c3.1-1,6.5,0,8.6,2.6c1,1.3,1.6,2.8,1.8,4.5c0.7,6.9-1.5,13.3-3.3,19.8c-0.5,1.7-0.7,3.4-1.2,5.1
	c-0.6,2-1.3,3.9-2,5.9c-1.3,3.6-3,7-3.9,10.7c-0.5,2.3,0.2,4.8,0.3,7.3c0.2,3.2,0.6,6.5,0.6,9.7c-0.1,5.8-0.8,11.6-0.9,17.4
	c-0.3,9.3-0.4,18.5-0.5,27.8c-0.1,3.1,0.2,6.1,0.1,9.2c-0.1,3.1-0.3,6.1-0.5,9.1c-0.2,2.7-0.2,5.5-0.5,8.2c-0.2,2-0.7,3.9-1.1,5.8
	c-0.1,0.4-0.4,0.8-0.4,1.1c0.7,6.6-0.5,13.2-3.4,19.1c-0.6,1.3-1.1,2.8-3,2.4c-1.9-0.4-3.4-1.4-3.5-3.4c-0.3-4.1-0.6-8.1-0.8-12.2
	c-0.3-5-0.9-10-0.6-14.9c0.5-8.2-1.3-16.4,0.5-24.6c1-4.3,0-9.1,0-13.6c0-2.4,0.2-4.8,0.4-7.2c0-0.7,0.2-1.3,0.2-2
	c0-8.4,0.1-16.7,0.1-25.1C296.3,326,296.1,324.5,296,322.6z"/>
<path d="M340.9,310.8c-0.8,12.7-1.5,25.4-2.3,38.1c-0.7,11.5-1.4,23.1-2.2,34.6c-0.6,8.6-2.7,17-6.3,24.8c-0.4,0.8-0.9,1.6-1.6,2.2
	c-0.9,0.7-2.4,1.6-2.9,1.3c-1.1-0.7-2.5-2.1-2.6-3.3c-0.2-6.1-0.1-12.3,0.1-18.4c0.1-5.5,0.6-10.9,0.8-16.4
	c0.1-4.6,0.1-9.1-0.1-13.7c-0.1-4.2-0.5-8.5-0.5-12.7c0-6.2,0.3-12.5,0.6-18.7c0.3-7.9,0.4-15.8,1.1-23.7c0.4-2.8,1.5-5.4,3.1-7.6
	c1.8-2.6,4.6-2.9,7.6-1.7c3.2,1.3,5.2,3.9,5.1,6.9c0,1.4-0.1,2.8-0.1,4.2s-0.2,2.7-0.3,4L340.9,310.8z"/>
<path d="M386.1,309.4c0.2,1.5,0.4,4,0.7,6.4c0.1,0.7,0.2,1.3,0.2,2c-1.5,10,1,19.9,1.2,29.9s0.5,20.1,1,30.2
	c0.3,6.8,0.9,13.6,1.3,20.4c0,1.6-0.1,3.2-0.2,4.7c-0.1,2.4-0.1,4.8-0.3,7.2c-0.1,1-0.9,2.8-1.2,2.8c-1.3-0.1-2.5-0.6-3.4-1.5
	c-1.1-1.5-1.9-3.1-2.3-4.9c-3.3-12.9-6-26-7.9-39.3c-2.6-16.9-2.8-34-4.6-50.9c-0.3-4.3-0.4-8.7-0.1-13c0.1-1.7,0.6-3.3,1.5-4.7
	c3.2-5.2,8.9-5.2,12.4-0.3C386.6,301.5,386.7,304.9,386.1,309.4z"/>
<path d="M280.2,269.4c-2.9,0.2-5.8,0.5-8.7,0.6c-1.7,0.1-3.5-0.2-4.1-2.1s0.9-3,2.4-3.9c4.2-2.6,8.6-5,12.6-8
	c9.1-6.9,15.7-16.7,18.5-27.8c1-3.6,1-7.5,1.6-11.3c0.7-4.7,2.1-8.9,6.9-11.1c3.5-1.6,9.3,1.2,10.1,5c0.4,1.7,0.5,3.5,0.3,5.2
	c-1,6.7-2.2,13.4-3.5,20.1c-0.4,1.4-0.9,2.7-1.6,3.9c-1.8,3.8-3.4,7.8-5.5,11.4c-2.7,4.7-5.4,9.4-10.5,12.4c-3.8,2.2-7.3,5-11.8,5.5
	c-2.2,0.3-4.5,0.3-6.7,0.5L280.2,269.4z"/>
<path d="M679.4,239.6c0.1,2.9-1.5,4.7-4.1,4.5c-0.7-0.1-1.4-0.4-1.8-1c-4.1-5.4-8.5-10.6-12-16.4c-2.7-4.5-4.4-9.6-6.3-14.5
	c-0.9-2.3,0.2-4.3,2.3-5.5c1.9-1.2,3.9-2.2,6-3c2.2-0.8,4.7-0.1,6.1,1.7c0.9,1,1.6,2.1,2.2,3.3C674.7,214.6,679.2,233.2,679.4,239.6
	z"/>
<path d="M415.6,214.2c6.9,0.5,13.4,0.8,19.8,1.5c1.7,0.3,3.4,0.9,4.8,1.8c2,1.2,3.2,3,2.6,5.4c-0.9,3.4-1.9,4.2-5,4.7
	c-5.2,0.9-10.3,2-15.4,2.7c-3.5,0.4-7.1,0.6-10.6,0.4c-3.1-0.1-5.6-1.8-7.8-4c-4.6-4.7-3.2-9.4,3.1-11.5
	C409.9,214.2,413,214.5,415.6,214.2z"/>
<path d="M734.9,235.8c0,1.2,0.3,2.6-0.1,3.7s-1.2,2.6-2.2,2.9c-1.3,0.2-2.7-0.1-3.7-1c-3.9-4.2-8.1-8.2-11.1-13.1
	c-2.8-4.5-4.6-9.7-6.3-14.8c-1.1-3.3,0.1-5.6,3.2-7.2c2.1-1.1,4.4-2,6.7-2.7c2.3-0.7,4.2,0.6,5.4,3.6c1,2.5,1.9,5.1,2.7,7.7
	c2,6.9,4,13.7,6,20.6L734.9,235.8z"/>
<path d="M706.5,238.7c-0.8,1.2-1.4,3.3-2.8,4.2c-1.9,1.1-4-0.2-5.1-1.9c-3.8-6-9.5-10.8-11.3-18c-0.4-1.7-1.8-3.2-2.3-5
	c-0.7-2.7-1-5.5-1.5-8.2c0-0.2,0.1-0.5,0.2-0.7c0.8-1.9,8-5.6,10.6-5.4c2.4,0.2,5.3,3,6,6c1.7,7.4,3.2,14.8,4.8,22.1
	C705.4,233.8,705.9,235.8,706.5,238.7z"/>
<path d="M394.9,219.1c0,4.4,0,8.8,0,13.2c0,5.4-2,7.9-6.6,8.2c-4.4,0.1-8.2-3-9-7.4c-1.5-10.4,0.3-20.9,4.9-30.3
	c1.6-3.2,3-3.3,5.2-0.5C393.1,207.1,395,213,394.9,219.1z"/>
<path d="M807,224.5c-0.6,4-1.2,8.9-2.1,13.7c-0.4,1.2-1.2,2.2-2.3,2.8c-1.7,0.9-2.4-0.8-3.2-1.9c-3.6-4.7-5.4-10.2-7.2-15.7
	c-1.3-3.6-2.2-7.4-2.6-11.2c-0.6-4.7,2.6-7.5,8.4-8c3.7-0.3,6.4,2.1,7.1,6.4S806.3,219.3,807,224.5z"/>
<path d="M786.4,195.6c-2.2,3.2-4.9,2.2-7.2,2c-4.8-0.4-3.3-4.4-3.8-7.4l-3.9,0.4c-0.2-3.2,2.2-2.4,3.7-2.7c0.8-1.4-1.3-3.8,2-4.3
	c0.1,1.3,0.3,2.5,0.4,3.9h3.6c-0.1-1.6-1.3-3.5,1.8-3.8c-0.5,3.3,0.8,5.1,4.5,4.3c-0.6,3-2.8,1.7-4.3,2.1l-1.7,3
	c-0.3-1.5-0.5-2.5-0.7-3.6c-1.4,0.2-3.3-1.1-3.7,1.4c-0.5,3.1,0.3,4.1,3,4.4c0.9,0.1,1.8,0.1,2.7,0.1
	C783.9,195.6,784.9,195.6,786.4,195.6z"/>
<path d="M707.3,197.9l1.5-1.8l-2.9-2.5c0.1-0.2,0.2-0.3,0.3-0.5l3.2,0.8l0.2-3.8c-4.2,0-4.4,3.4-5.5,6.2c-2-3.8-1.9-7.1,0.3-8.2
	c0.2,0.8,0.3,1.6,0.5,2.7l5.1-4.3c1,0.7,2,1.4,2.9,2.3c0.8,0.9,1.8,2,1.7,3c-0.1,1.2-1.2,2.4-2,3.4c-0.7,0.9-1.6,1.7-2.5,2.4
	c-0.8,0.5-1.7,0.9-2.5,1.2L707.3,197.9z"/>
<path d="M671.3,188.2c0.1,0.8,0.2,1.5,0.4,2.7c1.2-2,4.1-1.3,4.3-4.1c0.6-0.1,1.2,0,1.8,0.2c0.7,0.4,1.4,1,1.9,1.7
	c0.7,1,1.9,2.1,1.9,3.1s-1.1,2.3-1.9,3.4c-0.8,1-1.8,1.5-2.5,2.5c-0.9,1.3-1.7,1.3-3,0.4l1.4-1.9l-2.7-2.6l0.3-0.5l3.2,0.9v-4
	c-3.6,0.4-4.4,3.4-5.2,6.5C669.2,192.6,669.3,189.1,671.3,188.2z"/>
<path d="M738.8,190h-2.1c-0.9-3,1.6-2.1,3.1-2.6c0-0.7,0.1-1.4,0.2-2.1c0.3-0.7,0.7-1.3,1.2-1.8c0.4,0.6,0.7,1.3,1,2
	c0.1,0.4-0.2,0.9,0.3,1c1.1,1,2.9,1.8,3.2,2.9c0.8,2.9-0.1,6-2.3,8c-1.2,1-2.7,0.6-3.6-1.2c2.6-0.5,4.3-2,4.3-4.7
	c-0.2-0.9-0.5-1.7-1-2.4c-0.8,0.5-1.8,0.9-2.3,1.6c-1.4,2.3-2.8,4.6-4.5,6.8C734.5,194,739.1,192.9,738.8,190z"/>
<path d="M798.3,184l-2.2,6.1c3.5,0,2.5,3.4,3.9,5.6l3.8-3.4l0.6,0.1c-0.3,1.1-0.2,2.7-0.9,3.3c-1.3,1-2.8,1.6-4.4,1.8
	c-0.5,0-1.2-1.8-1.7-2.8c-0.4-0.8-0.7-1.6-1.1-2.4c-0.9,0.4-1.7,0.8-2.5,1.4c-0.8,0.8-1.3,2-2,2.8c-0.6,0.4-1.2,0.7-1.9,0.9
	c-0.1-0.8,0-1.5,0.2-2.2c0.6-1.1,1.6-1.9,2.2-3c1.2-2.3,2-4.8,3.2-7.1c0.3-0.7,1.3-1.1,1.9-1.6L798.3,184z"/>
<path d="M722.1,195.7c2.1-0.9,4.4-1.5,6.2-2.8c1.1-0.7,1.5-2.5,2.2-3.8c-1.3-0.5-2.5-1.5-3.8-1.5c-2.2,0-4.4,0.8-6.6,1
	c-0.7,0.1-1.4-0.4-2.1-0.7c0.5-0.5,0.9-1.4,1.4-1.5c2.8-0.5,5.6-0.8,8.4-0.9c1.9-0.1,3.7,0.5,4.5,2.4c0.9,1.9,0.4,4.2-1.3,5.4
	c-1.7,1.4-3.6,2.5-5.7,3.4c-1,0.4-2.3-0.2-3.5-0.4C721.9,196.2,722,195.9,722.1,195.7z"/>
<path d="M664.9,191.1c1.3,1.5,0.7,3.1-0.9,4.2c-1.4,1.1-3,1.9-4.8,2.3c-4.2,0.8-6-1.2-5.7-5.5c0.1-2.1-0.1-4.3-0.1-6.4l-0.8-0.4
	l2.5-1.1c0.3,0.8,0.5,1.6,0.6,2.5c0,2-0.2,4-0.2,6c0,2.7,1.4,3.9,3.8,2.8C661.3,194.5,662.9,192.7,664.9,191.1z"/>
<path d="M688.3,184c0.3,1.1,0.4,2.3,0.5,3.4c0,2-0.2,4-0.2,6c0,1.6,0.9,2.3,2.6,2.3c3.2-0.1,4.7-2.4,6.2-4.7
	c1.4,1.5,1.5,2.1,0.5,3.6c-2,2.7-5.4,3.9-8.6,3c-2.4-0.8-2.7-2.8-2.7-5s-0.4-4.2-0.5-6.3c0-0.8,0.6-1.6,1-2.4L688.3,184z"/>
<path d="M755.7,184.9l1.8,9.8h0.9l1.9-2.1c1.3,2.6-0.3,3.9-2.5,5.7c-1-1.8-2-3.6-2.8-5.5c-0.6-1.9-1-3.8-1.1-5.8
	c0-0.7,0.8-1.5,1.3-2.3L755.7,184.9z"/>
<path d="M764.5,185.1c2.3,0.9,4.8,4.7,4.2,6.9c-0.2,0.6-1.2,1.1-1.8,1.6C766.1,190.6,765.3,187.9,764.5,185.1z"/>
<path d="M749.6,192.2c-3.4-3.3-4.1-5.9-2.5-7.4l4,6.2L749.6,192.2z"/>
<path d="M660.6,184.4l5.4,0.6l0.1,1l-3.4,2.2L660.6,184.4z"/>
<path d="M694,185c1.3-0.6,2.7,1.7,2.5-1.2l3,2.3c-1.5,0.6-2.7,1.4-3.7,1.3C695.2,187.3,694.7,185.9,694,185z"/>
<path d="M578.1,256.2c5.4,0,10.8,0.1,16.1,0c6.1-0.2,11.7,6.5,10.8,12.6c-0.5,4.1-0.8,8.3-0.9,12.4c-0.3,6.5-0.7,12.9-0.8,19.4
	c0.1,1.9,0.5,3.8,1,5.6c0.3,0.6,0.4,1.3,0.5,1.9c-0.2,6.4-0.3,12.7-0.7,19.1c-0.3,3.5-2,6.7-4.8,8.7c-4.3,3.5-8.7,6.8-15.1,5.5
	c-3.2-0.6-6.6-0.1-9.9,0.2c-5.8,0.5-10.1-2.5-13.8-6.3c-4.1-4.1-5.4-9.4-4.8-15.1c0.2-2.6,0.3-5.2,0.2-7.7
	c-0.1-6.6-0.5-13.3-0.6-19.9c-0.1-7.9-0.5-15.8,0.1-23.6c0.5-7,1.6-10.3,10.4-12c4-0.8,8.1-0.6,12.1-0.9L578.1,256.2z M588.2,289.9
	h0.4c-0.2-3.7-0.2-7.5-0.6-11.2c-0.2-1.5-0.7-2.8-1.6-4c-2.9-3.7-8.2-3.8-12.7-0.5c-1.9,1.3-3,3.5-2.8,5.8c0.1,2-0.2,4-0.2,6
	c-0.1,3.7-0.3,7.5-0.4,11.2c-0.1,4.6-0.2,9.1-0.2,13.7c-0.1,2.2,0,4.4,0.4,6.5c1.6,6.7,8.2,9.9,14.5,7c1.3-0.6,2.4-1.8,2.8-3.2
	c0.9-4.1,1.5-8.3,1.6-12.5C589.3,302.3,588.6,296,588.2,289.9L588.2,289.9z"/>
<path class="st0" d="M736.9,185.1c0.5-4,6-5.6,8.5-2.4c2.1-1.2,4.8-0.5,6,1.6c0.1,0.2,0.2,0.4,0.3,0.6c1.1-2.4,4.3-3.6,6.5-1.9
	s1.5,4.7,1.9,7.1c1.3,0,2.6,0.5,3.7,1.3c-0.7-1.6-1.4-3.2-2.2-4.7c-0.4-2,1.2-4.4,3.5-4.3c2.6-0.2,4.4,2.2,5.8,4.1
	c0.5-0.3,1-0.6,1.6-0.9c0.5-2.9,3.2-4.8,6.1-4.3c0.5,0.1,1,0.3,1.5,0.5c1.6-0.5,3.4-1.1,5-0.2c1.5,0.7,1.8,2.5,2.2,3.9
	c2.3-0.2,4.3,1.6,4.5,3.9c0,0,0,0.1,0,0.1c1.7-2.3,0.5-5.6,2.9-7.4c2.1-2,6.3-1.4,7.2,1.6c0.7,1.7-0.4,3.4-1,5l1.2,1.5
	c1.4-0.6,3.3-1.1,4.6,0c1.7,1.2,1.7,3.6,1.5,5.5c-0.7,2.7-3.3,4.4-5.8,5.4c4.4,0.7,6.7,5.2,7.5,9.1c1,5.7,1.6,11.5,1.7,17.3
	c-0.9,5.5-0.4,11.7-3.8,16.4c-1.6,2.3-4.8,2.2-7.2,1.7c-2.9-1.1-4.2-4.2-5.9-6.5c-1.9-2.5-2.2-5.7-3.7-8.4c-2.5-3.5-2.2-8-4.3-11.7
	c-0.3-4.1-2.3-9,0.7-12.6c1.1-1.4,1.9-3,3.5-4c2.2-0.9,4.4-1.5,6.7-1.9c-0.7-0.8-1.3-1.5-1.9-2.3c-1.4,2.7-5,4-7.4,1.8
	c-2.8,2-6.5,1.3-9.6,1c-3.4-0.5-5.6-3.7-5.7-7c-1.8,2.6-5.6,4.3-8.2,1.8c-0.6,1.4-1.4,2.6-2.3,3.8c2.6-0.1,5.4-0.1,7.8,1
	c2.4,2.6,5.3,5.3,5.3,9.1c0.8,3.7,1.1,7.6,0.8,11.4c-0.3,3.4,1.5,6.5,1.1,9.9c-0.5,6.1,0.7,12.2,0.6,18.3c-0.5,3.8-0.6,7.7-0.1,11.6
	c3.1-0.4,6,0.5,9.1,0.6c5.7-1.2,11.3,0.6,17,1.2c3.9,0.2,7.5,2.3,9.5,5.6c2.2,3.3,0.9,8-2.2,10.4s-6.9,4.1-10.7,3
	c-3.7,0.1-7.3,1.1-10.9,1.8c-3.3,0.4-6.6,0.6-9.9,0.5c0.3,5.8,1.5,11.4,2.4,17.1c0.8,2.1,0,5.6,2.9,6.2c4.1,0.7,8.4,0.9,12.5,0.4
	c5.2,1.5,10.8,1.4,16,2.8c4.8,1.1,8,7,5.9,11.5c-2,2.2-4.2,4.5-7.1,5.5c-2.3,0.9-4.8,0.4-7.1,0.5c-5.8,1.4-11.9,1.3-17.8,2.1
	c1.4,3.3,2.4,6.7,2.9,10.3c0.3,3.3,2,6.3,2.7,9.5c0.7,2.9,2,5.7,2.3,8.6s2,5.9,2.6,8.9c1,4.3,1.3,8.9,2.7,13.1
	c1.6,3.9,3.4,7.8,5.4,11.6c1.8,4.2,2.1,9,4.4,13.1c2.7,5.3,5,10.8,8,16c1.6,2.5,3.4,5.7,1.9,8.7c-1.3,2.2-3,5-5.9,5
	c-4.1,0.4-7.4-2.5-9.9-5.4c-4.6-3.8-7.5-9-11-13.7c-1.5-2-2.1-4.4-3.5-6.3c-2.7-3.3-2.8-8-5.9-11c-1.3-2.3-2.4-4.7-3.6-7.1
	c-2-3.9-2.4-8.3-4.1-12.2c-1.5-3.3-3.1-6.6-3.5-10.3c-0.2-2.2-0.8-4.3-1.7-6.2c-1-1.9-0.7-4.2-1.5-6.1c-1.1-2.8-1-5.9-2-8.7
	c-0.8-2.5-1.4-5.2-1.7-7.8c-1.1-2.8-1.8-5.7-2-8.7c-1.8,0.6-3.9,0.9-5.1,2.5s-0.8,3.6-0.7,5.3c0.6,3-0.4,6.1-0.1,9.1
	c0.1,3.1-0.1,6.1-0.5,9.2c0.8,5.1-0.5,10.3,0.2,15.4c0.6,3.4-1.1,6.7-0.4,10.1c0.6,4.9-0.5,9.8-0.8,14.7c-0.1,3.4-0.4,6.8-1,10.1
	c0.1,5.6-0.6,12-5.1,15.9c-4.8,3-11.4-1.2-11.9-6.5c-0.6-4.9-2.1-9.6-2.8-14.5c-1.5-4-2-8.4-1.3-12.6c-2.1-7.8-1.4-15.9-1.1-23.8
	c-3.1,0.2-6.2,0.2-9.2-0.1c-4.9,0.5-9.8,0.2-14.6,0.3c-0.8,7.4,1.2,14.7,0.8,22.1c0.9,4.3,0.7,8.7-0.8,12.8
	c-1.2,7.2-1.7,14.5-2.6,21.7c-1.3,3.9,0,8.6-3,11.8c-2.1,2.5-5.7,2-8.5,1.3c-3.4-1.9-5.1-5.9-5.3-9.6c-0.3-5.4-2.9-10.6-2.3-16.1
	c0.3-2.2,0.2-4.4-0.3-6.6c-0.8-2.9-0.2-6-0.8-9c-0.8-3.8,0.2-7.6,0.1-11.3c-0.5-5.6-0.5-11.3,0-16.9c-4.6,0.8-9-1.5-13.6-0.5
	c-5.3-0.5-10.8,0.6-16.1-0.4c-2.1-0.5-4.3-0.5-6.5-0.8c-3.3-1.6-7.3-2.9-9.2-6.3c-2.1-4.2-0.4-10.1,4-12.2c3.2-2.1,7.1-1.1,10.7-1.1
	c8.3,0,16.6,0.2,24.8-0.7c2,0.4,4,0.4,6,0c0.7-3.9,0.7-7.9-0.1-11.8c-5.5,0-11.1,0.9-16.7-0.1c-3.1-0.7-5.3-3.2-7.9-4.8
	c-0.8-0.6-1.5-1.3-2.1-2.1c-4.5-3.7-6-9.8-7.1-15.2c-0.7-2,0.3-4-0.2-6c-1.4-5,1.1-10,0.6-15c-0.4-7-0.1-14.1-0.7-21.1
	c0.2-1.6,1-3.3,0.3-4.9c-1.2-4,0.3-8,2-11.6c3.5-4.5,8.8-7.2,14.5-7.5c-1.4-2.4-2.6-5.1-5-6.6c-1.7-1-2.4-2.8-3.4-4.3
	c-1.8-2.9-4.2-5.3-5.6-8.4c-1.2-2.5-1.5-5.3-3.2-7.5c-1.6-1.8-0.9-4.3-1-6.5c-0.6-4.9,4.2-8.2,8.3-9.7c-2.5-0.2-5.2-0.5-6.9-2.5
	c-2.6-2.5-1.5-6.4-1.5-9.6c-1.7-1.8-1.7-4.6,0.1-6.4c0.1-0.1,0.2-0.2,0.4-0.3c1.7-1.8,4.6-1.9,6.5-0.2c0.4,0.3,0.7,0.8,0.9,1.2
	c1.4-1.7,3.6-2.2,5.6-2.4c2.3,0.5,4.2,2.2,5,4.4c1.2-0.1,2.5-0.2,3.7-0.1c1.3-1.1,2.8-2.4,4.6-2.1c2.4,0,3.2,2.7,5,3.8
	c-0.7-3.6,3.5-7.2,6.9-5.6c0.9,0.5,1.6,1.2,2.3,2c1.8-1.8,4.4-2.6,6.9-2c1.6,0.9,2.9,2.3,3.7,4.1c1.2-0.2,2.4-0.2,3.6,0
	c1.2-1.1,2.4-2.4,4.1-2.3c2.2-0.4,3.6,1.8,4.7,3.3c1-1.2,2-2.9,3.7-3.1c4.1,0.1,8.3-1.5,12.4-0.3c1.4,0.5,2.7,1.4,3.7,2.6
	c0.6-0.4,1.2-0.8,1.8-1.1 M666.2,184L666.2,184 M664.3,184.4l-0.5,1.3l-2.1-0.7c-0.1,1.5,0.8,2.6,1.7,3.6c1.1-0.7,2.2-1.4,3.4-2.1
	L664.3,184.4 M697,184.5c-0.7,1.4,0.8,1.9,1.7,2.6l0.9-0.9C698.7,185.7,697.9,185.1,697,184.5 M740.1,188.2c-0.9,0.1-1.9,0.1-2.8,0
	c-0.3,0.8-0.4,1.6-0.2,2.4l2.8-0.6c-0.6,2-1.7,3.7-3.2,5.2c-1.1,0.8-1.1,2,0,2.9c2.7-2.1,3.9-5.4,5.1-8.5c0.8,0,1.7,0,2.5,0
	c1.2,2.8-0.4,7.5-4.2,6.8c0.2,1.3,1.5,2.2,2.8,1.9c0.6-0.1,1.2-0.5,1.6-1c1.6-2.5,2.1-5.6,1.5-8.5c-0.9-1.2-2.4-1-3.7-0.9
	c0-1.3,1.2-3.4-0.6-3.9C739.5,184.6,741.5,187.3,740.1,188.2 M775.6,185.3c0.2,1.1,0.4,2.2,0.6,3.3l-3.5,0.1c-0.3,0.8-0.7,1.7-1,2.5
	c1.5,0.1,3-0.2,4.4-0.8c0.2,2.3-0.6,4.9,1,6.8c2.5,1.7,5.7,1,8.5,1l1.1-2.1c-3,0.2-6,0.4-8.8-0.7c-0.1-1.7-0.2-3.4-0.2-5.1
	c1.4-0.4,2.8-0.4,4.2-0.2c-0.1,1.2-0.1,2.3,0.1,3.5c0.9-0.9,1.5-2.1,1.7-3.3c1.8,0.7,4,0.9,4.5-1.4l-4.6-0.4c0-1.5,0-2.9,0-4.4
	c-0.8,0.3-1.5,0.7-2.3,1.1c0.3,1,0.5,2.1,0.8,3.1c-1.4,0-2.8,0-4.1,0.1c0-1.5,0.2-3-0.5-4.4L775.6,185.3 M796.1,185.3
	c0.4,3.4-2.2,6.1-3.9,8.8c-1,1.1-3.4,3.5-1,4.2c2.2-1.7,2.6-5.3,5.8-5.7c1.9,1.2,0.2,4.6,2.6,5.6c2.8,0.5,6.8-2.7,4.7-5.6
	c-0.9,1.7-2.3,3-4.1,3.7c-0.5-1.4-0.9-2.8-1.2-4.3c-0.3-1.3-2.1-0.9-3-1c1-1.9,1.9-3.8,2.5-5.8C798.9,183.5,796.3,184.1,796.1,185.3
	 M653,186.2c2.9,2.7,0,6.9,1.4,10.1c0.9,1.9,3.2,2.4,5.1,2c2.9-0.3,5.4-2.1,6.5-4.7c-0.4-0.8-0.8-1.7-1.1-2.5c-1,2-2.2,4.1-4.5,5
	c-1.5,0.6-3.9,1-4.6-0.9c-0.5-3.2,0.4-6.5,0.1-9.8C654.9,183.9,654,185.5,653,186.2 M686.2,186.3c3.2,3-1,8.1,2.2,11.1
	c3.5,2.3,8.8,0.4,10.5-3.3c0.4-1.1-0.5-2-0.8-2.9c-1.1,2.2-2.7,4.5-5.2,5.1c-1.3,0.3-3.2,0.5-3.7-1c-0.5-2.6,0-5.2,0.1-7.8
	c0.4-1.2-0.2-2.4-1.2-3C687.4,185,686.8,185.6,686.2,186.3 M695,185c-0.5,1.7,1.7,4.4,3.2,2.5C697.3,186.5,696.2,185.6,695,185
	 M746.6,187.1c0.6,2.2,1.8,4.2,3.4,5.8c0.6-0.6,1.2-1.1,1.7-1.7c-2-1.6-3.8-3.6-3.7-6.3C747.4,185.5,746.3,186,746.6,187.1
	 M754.1,187.1c1.4,1.9,0.8,4.4,1.5,6.6c0.4,1.9,1.5,3.6,3,4.8c1.7-1.2,3.6-3.3,2-5.3l-1.6,2.5c-2.8-2.5-2-6.8-2.6-10.1
	C755.2,185.2,754.5,186,754.1,187.1 M764.5,185.5c1.7,2.5,2.5,5.5,2.3,8.5c0.9-0.1,1.7-0.5,2.4-1
	C768.7,190.2,768.1,185.9,764.5,185.5 M719,187.2c-0.7,0.7-0.6,1.9,0.1,2.5c0,0,0.1,0.1,0.2,0.1c3.2-1.6,6.8-2.1,10.4-1.5
	c1.2,0.4,1.9,1.8,1.5,3c-0.1,0.2-0.2,0.5-0.3,0.7c-2,2.8-5.5,3.8-8.7,4.1c0.7,0.7,1.4,1.8,2.6,1.6c3.2-0.4,6-2.1,7.8-4.7
	c1.5-2.2,0.6-5.7-2.1-6.4C726.5,185.7,722.7,187.1,719,187.2 M676.3,187.4l0.3,1.7c-1.8,0.4-3.5,1.4-4.6,2.9v-2.9
	c-0.7-0.9-1.6,0.7-2.2,0.9c1.1,2.1,0.6,4.5,1.3,6.7c1.5-0.4,1.6-1.5,1.2-2.9c1.1-1.8,2.8-3.1,4.8-3.6c0,1.6,0,3.1,0,4.7
	c-1.2-0.5-2.4-0.9-3.6-1.3c0.2,1.8,1.8,2.4,3.3,2.9c-0.7,0.7-1.5,1.4-2.2,2.1c0.6,0.4,1.3,0.6,2,0.7c1.1-0.6,1.3-2,1.8-3.1
	c2-0.1,4-1.7,3.7-3.9c0.4-2.1-1.6-3.1-3.3-3.4C678.3,187.6,677.9,186.2,676.3,187.4 M709.6,189.1c-1.9,0.4-3.6,1.5-4.7,3.1
	c0-1.2,0-2.4,0-3.6c-0.7,0.5-1.4,1-2.2,1.5c0.8,2.2,0.5,4.6,1.3,6.9c1.3-0.6,1.4-1.8,1.2-3.1c0.9-1.9,2.7-3.2,4.8-3.4
	c0,1.5-0.1,3-0.2,4.5l-3.5-1.2c0,1.8,1.8,2.3,3.2,2.9c-0.8,0.7-1.5,1.4-2.2,2.1c0.7,0.3,1.3,0.8,2.1,0.5c1.1-0.5,1.2-1.9,1.6-2.9
	c1.8-0.3,3.8-1.3,3.8-3.3c0.6-2.3-1.3-4-3.5-4c-0.1-0.5-0.3-1.5-0.4-2C709.6,187,709,187.7,709.6,189.1 M718.4,193
	c-0.3,2.8-2.1,5.1-4.7,6.2c-1.5,4-7.4,4.5-9.4,0.7c-1.5-0.4-2.7-1.4-3.5-2.8c-1.2,1.4-2.6,2.6-4.3,3.3c2.6,0.9,4.9,2.6,6.5,4.9
	c3.1,6.3,3,13.6,5.3,20.3c0.9,6.1,3.5,12.2,1.6,18.3c2.1-0.1,4.1,0,6.2,0.3c3.1,0.8,6.3,0.3,9.4,0c-1.7-1.8-2.8-4.1-4.5-6
	c-2.7-3.2-6.7-5.5-8-9.7c-1.2-4-3.8-7.4-4.8-11.5c-1.2-3.4-1.2-7.3,0.9-10.3c2.5-4.2,7.7-5.1,12-6.6c-1.7-1.3-2.9-3.6-1.7-5.7
	c1.7-2.6,5.3-1.3,7.3-3.3C724,191.2,721.4,192.8,718.4,193 M748.8,195.9c-0.8,2.5-2.3,5-5,5.6c-1.7,0.6-3.4,0-4.9-0.8
	c-2.2,1.1-4.9,0.2-5.9-2c-0.2-0.3-0.3-0.7-0.4-1c-1.8,1.5-4,2.6-6.2,3.1c2.3,1.3,4.1,3.3,5,5.7c1.2,2.4,1.2,5.3,2.7,7.6
	c1.1,2,1.1,4.4,2.1,6.4c0.5,1.5,1.7,2.8,1.5,4.5c-0.3,3.5,2.5,6.4,1.7,9.9c0.8,4.4,0.2,9.3-3.6,12.1c1.7,1,3.3,2.3,4.6,3.8
	c3,3.1,3.3,7.8,3.2,11.9c3.1-1.7,6.5-0.7,9.7-0.6c-0.1-7,0-14.1,0-21.1c0.3-5.9-1.8-11.6-1.8-17.5c-1-4.2-0.7-8.5-0.5-12.8
	s3.5-7.1,6.8-9.1c-2.7-1-4.3-3.6-5.2-6.2C751.4,195.8,750.1,196,748.8,195.9 M680.9,199.1c-1,1-1.6,2.5-3,3
	c-2.4,1.1-5.3,0.2-6.6-2.1c-1.5-0.5-2.8-1.5-3.6-2.8c-0.9,1.1-2,2-3.2,2.8c2.5-0.1,5.2,0.3,7.2,2.1c4.9,3.8,5.8,10.3,7.7,15.8
	c2.1,3.9,1.7,8.5,3.4,12.6c0.3,4.7,2.1,9.6,0.4,14.2c4-1.8,8.2-0.3,12.3-0.7c-0.6-0.8-1.3-1.5-1.8-2.3c-3-5.2-8.2-9.2-9.6-15.3
	c-0.8-2.1-1.8-4.2-3-6.2c-1.9-4.8-2.8-10.7,0.6-15c2.3-1.7,4.9-2.9,7.6-3.6c-2.4-0.8-4.3-2.6-5.2-5
	C683.2,197.6,682.1,198.4,680.9,199.1 M655.7,209.6c-0.4,1.8,0,3.8,0.1,5.6c1,1.5,1.7,3.1,2.3,4.8c1.2,5.5,5.8,9.4,8.3,14.3
	c4.1,2.2,5.4,6.9,8.2,10.3c2.1,0.7,4.4-0.5,5-2.6c0.1-0.3,0.1-0.6,0.2-0.9c-0.1-4.2-0.7-8.4-1.9-12.4c-0.8-2.9-0.7-6-2.1-8.6
	c-1.8-4.1-2-8.8-4.6-12.5c-1.5-2.4-4.5-4.4-7.3-3.1S657.7,207,655.7,209.6 M691.6,205.1c-2.2,1.2-4.7,1.6-6.6,3.3l-1.1,1.6
	c-0.2,2.8-0.1,5.6,1.2,8.1c1.6,2.5,2.8,5.3,3.6,8.2c1.7,5.1,6.3,8.4,8.7,13.1c1.6,2.3,4,5.4,7.2,4c2.2-1.8,2.4-5,1.6-7.5
	c-1.2-3.7-1.2-7.7-2.6-11.4c-0.5-2.1-1.1-4.3-1.4-6.5c-0.3-1.9-0.8-3.8-1.4-5.6c-0.1-1.7-0.6-3.4-1.4-4.9c-1.1-1.1-2.2-2.1-3.4-3
	C694.6,204.2,693,204.3,691.6,205.1 M712.1,210c-1,4.3,1.3,8.4,3.2,12.2c1.6,2.3,1.5,5.5,3.6,7.5c2.5,2.3,4.8,4.8,6.9,7.4
	c1.6,2.1,2.9,4.7,5.1,6.2c1.3,0.2,3-0.1,3.7-1.4c1.8-2.7,0.2-6,0.5-9c-0.3-1-0.7-1.9-1-2.8c-0.6-1.8-0.8-3.6-0.7-5.5
	c-1.2-2.1-2-4.4-2.5-6.8c-0.7-2.5-2.3-4.5-2.6-7.1c-0.6-2.9-2.2-6.9-5.8-6.6C718.6,205.4,714.3,206.4,712.1,210 M761,204.7
	c-2.2,1.3-4.8,2.7-5.5,5.4c-0.8,3.2-0.2,6.5-0.2,9.7c0.2,0.3,0.6,0.9,0.8,1.2c-0.7,4.6,0.4,9.1,1.1,13.6c0.4,4,0.5,8,0.2,12
	c-0.2,2.4,0.9,4.9,0,7.3c0.3,2.5-0.2,5.1,0.3,7.6c0.3,1.5,0,3.6-1.6,4c-3.9,1.5-8.2-0.5-12,1.3c-2.1,3.2-2.5,8.6,1.2,10.8
	c3.8,3.5,9.4,2.4,14.1,2.8c0.8,3.3,1.8,6.6,1.5,10c0,3.4,1.5,6.5,2,9.8c0.2,3.3,2.1,6.4,1.1,9.8l-0.8-0.4c-3.5,1.9-7.6,1.8-11.3,3.2
	c-3.1,1.5-5.8,3.5-8.2,6c-2.5,3.7-5.3,7.5-5.7,12.1c-1.1,4.8,0.4,9.8-0.9,14.5c0,1-0.1,2-0.1,2.9c-4.1,2.1-8.6,0.8-13,0.9
	c-4.2-0.5-8.5-0.7-12.8-0.5c-1.4,0-2.9,0-3.9-1.1c0.2-4-1.2-7.8-0.8-11.8c0.1-2.5,0.9-6,3.8-6.5c4.2-0.5,8.5,0.2,12.7-0.1
	c3.1-0.4,5.6-2.3,8.4-3.6c3-1.3,4.8-4.2,6.5-6.9c1.8-4,1-8.5,1.7-12.7c0.4-3.3,0.3-6.6-0.4-9.8c0.3-4.4,0.4-8.7,0.8-13
	c-1-3.1-0.2-6.4-0.7-9.5c-0.5-4.1-0.5-8.2,0-12.2c0.2-2.4-0.3-4.7-1.3-6.9c-2.4-3.3-6.3-4.8-10-6.1c-4.4,0.5-8.9,1-13.3,0.2
	c-3.5-0.6-6.9,0.5-10.4-0.2c-2.4-0.4-4.8,0.4-7.2,0.6c-2.9-0.8-5.9-0.5-8.8-0.8c-1.5,0.3-2.9,0.5-4.4,0.8c-4-0.2-8.1,0.3-12.1-0.3
	c-0.9,0.8-2.2,0.5-3.3,0.7c-3,0.5-5.9,1.8-8.2,3.8c-2,1.7-2.7,4.3-3.2,6.7c0,3.2,1.4,6.4,0,9.5c0.6,3.5,0.2,7.1,0.2,10.7
	c1,3.5-0.1,7.2,0.5,10.8c0,5.1-1.8,10.2-0.4,15.3c-0.6,5.2,1.2,10.4,3.8,14.9c3.9,4.1,8.6,9,14.8,8.3c3.8-0.4,7.5-0.1,11.3-0.4
	c2.3,0.2,4.1,2.1,4,4.4c0.4,4.8,0.7,9.9-0.7,14.5c-1.2,0.7-2.6,1.2-4,1.4c-11.8,0.1-23.6,1.1-35.4,0.4c-2.5-0.2-4.8,1.1-6.1,3.3
	c0.1,1.7-0.5,3.8,1,5.1c1.5,1.2,3.2,2.1,5,2.7c8.4,2.1,17.2,1.9,25.8,1.2c3.3,0.5,6.5,1.4,9.9,0.9c2.2-0.5,3.5,1.5,4.5,3.1
	c-0.2,2.9-0.6,5.8-0.5,8.7c-0.2,5,1,10-0.1,15c-0.4,2.3,0.4,4.6,0.5,6.9s-0.2,4.7,0.6,7c0.9,3.2,0.1,6.6,0.3,9.9
	c0.4,3.4,1.3,6.8,2,10.2c0.4,2.9,0.3,6.2,2.5,8.3c0.9,1,2.4,1,3.6,0.8c1.5-0.5,1.7-2.2,1.8-3.6c0-3.1,1.3-6.1,1.4-9.2
	c0.2-5.2,1.2-10.4,1.6-15.6c0-2.9,1.6-5.6,1.8-8.5c0.5-2.6-0.7-5.2-0.6-7.8c0.5-6.9-1.5-13.7-0.9-20.5c0.2-1.9,0.6-3.8,2.1-5
	c5.8-0.1,11.7,0.5,17.5-0.2c4,0.6,8-0.1,12-0.2c0.5,3.3,1.2,6.7,0.8,10c-0.1,0.3-0.3,0.9-0.5,1.2c0.1,5.4,0.1,10.9,1.5,16.2
	c0.8,2.4-0.9,4.7-0.1,7c1.6,5.7,2.4,11.5,3.9,17.3c0.2,2,0.1,4.4,1.9,5.7c1.1,1.2,3.2,2,4.4,0.4c3.5-4.2,2.3-10.1,3.2-15.1v0.4
	c0-1.6,0.2-3.1,0.4-4.7c0-4.9,1.3-9.6,1.1-14.5c0-1.9-0.6-3.7-0.7-5.6c1-3,1.2-6.2,0.6-9.3c0.1-3.2,0.4-6.5,0.4-9.8
	c-0.7-2.1-0.2-4.2,0-6.4c0.8-4,0-8,0.5-12c0.1-3-0.6-6.1,0-9.1c1.6-4.3,6.5-6.5,10.8-6.4c2,0.3,3.4,2.2,3.2,4.2
	c0.1,3.3,1.6,6.3,2.7,9.3c-0.1,0.3-0.4,0.8-0.5,1c1.5,3.6,1.8,7.5,2.7,11.3c0.8,2.2,1.3,4.4,1.7,6.7c0.8,2.5,2.1,4.9,2.3,7.6
	c0.3,4.1,2,7.8,3.8,11.4l0,0c0.7,2.4,1.1,5,2,7.3l0.5,0.1l-0.2,0.5c0.3,1.4,0.8,2.7,1.6,3.9c1.1,2.1,1.8,4.4,3.3,6.2
	c2.6,3,3.2,7.1,5.3,10.5c1.7,2.1,2.5,4.9,4.2,7c1.4,1.8,2.7,3.7,3.9,5.6c1.5,2.3,3.4,4.4,5.5,6.2c2.4,1.9,4.3,5.4,7.9,4.9
	c0.7-1,1.3-2.1,1.9-3.2c-0.9-3.5-3.5-6.2-4.7-9.6c-2.6-4.2-4.2-9-6.6-13.3c-1.7-5.1-2.6-10.5-5.7-15.1c-1.5-3.9-3.7-7.5-4.4-11.6
	c-0.3-2.5-1-4.9-1.2-7.3c-0.5-3.6-2.5-6.9-2.9-10.5c-0.6-4-2.3-7.7-3.3-11.6c-2.1-5-1.7-10.6-4.1-15.5c-1-2-2.3-5.2,0.2-6.6
	c6.7-1.1,13.7-0.7,20.3-2.5c1.8-0.4,3.8,0,5.6,0.1c2.2-1,4.2-2.4,5.8-4.3c0.1-2.1-1-4.5-3.2-5c-4.1-1-8.4-1.6-12.6-1.9
	c-2.7-1.5-5.7-0.2-8.5-0.7c-3.1,0-6.2-0.4-9.3-1.1c-2.7-1.4-3.8-4.3-3.9-7.1c-1-3.8-1-7.7-2.1-11.4c-0.4-3.5-0.6-7-1.1-10.5
	c0-0.8-0.4-3,1.2-2.2c5.8,0.6,11.6,0.1,17.1-1.4c3.2-0.1,6.5-1.5,9.7-0.6c3.2-0.3,6.6-2.4,7.2-5.7c-1.2-3-4.1-5-7.3-5.2
	c-4.3-0.4-8.5-1.6-12.8-1.6c-3.9,1.4-7.9-0.6-11.9-0.2c-1.3,0.2-2.4-0.4-3.6-0.7c-2.8-5.5-1-11.9-1.3-17.9c0.3-4.7-1.1-9.5-0.3-14.2
	c0.1-2.5-0.2-4.9-0.9-7.3c-0.4-3.5,0.1-7.1-0.2-10.6c-0.7-1.9-1-3.9-0.9-5.9c-1-1.6-2.1-3.1-3.5-4.4c-2.1-0.4-4.5-1-6.4,0.3
	 M791.2,208.2c-2.4,2.8-0.8,6.5-0.9,9.7c1.8,2.7,2.2,6,2.9,9.1c1.2,1.8,2.2,3.7,2.7,5.8c0.9,3.5,3.5,6.3,5.5,9.2l2.4-0.1
	c0.3-0.5,0.7-1,1-1.5c1.4-3,1.4-6.3,1.8-9.5c0.9-6.8-0.4-13.6-1.5-20.3c-0.4-3.2-3.2-5.7-6.4-5.6C796,205.2,792.9,205.8,791.2,208.2
	 M744.2,282.4c-0.6,4.6-0.9,9.2-0.9,13.8c1.1,5.7,0.2,11.5-0.3,17.2c1.4-1.3,3-2.4,4.6-3.4c3.8-2,8.1-2.3,12.1-3.5
	c-0.7-2.2-1.2-4.4-1.4-6.6c-0.3-2.2-1.7-4.1-1.6-6.3c-0.3-3,0.1-6-0.8-8.8C752,284.5,747.6,284.8,744.2,282.4 M726.1,332.8
	c-4.9,1.5-10,0.4-15,0.6c-1,3.7-0.1,7.4,0.4,11.1c7-0.3,14,0.9,21,0.8c1.6-5.3,0.2-10.9,1.5-16.3C731.4,330.4,729,332.1,726.1,332.8
	 M678.5,190.2c0.8,0.6,2.2,1.2,1.9,2.5c-0.1,1.2-1.3,1.6-2.1,2.1C678.4,193.3,678.4,191.8,678.5,190.2 M711.5,190.2
	c1.4,0.4,2.2,1.8,1.8,3.2c-0.1,0.2-0.2,0.4-0.3,0.6c-0.6,0.3-1.1,0.5-1.7,0.8C711.4,193.3,711.4,191.8,711.5,190.2 M380.4,202.8
	c1-3.1,3.7-6.7,7.4-6c3.4,0,4.8,3.4,6.9,5.4c2.6,4.4,4.2,9.4,4.6,14.6c2.6-3.6,6.7-5.7,11.1-5.6c6.1-0.8,12.2-0.1,18.4,0.5
	c5.3,0.1,11.3,0.1,15.5,3.8c3.2,2.3,4.1,7,2.6,10.5c-0.8,1.8-1.4,4.1-3.5,4.9c-3.1,2-7,1.2-10.5,2.3c-3.7,1.1-7.6,1.3-11.2,2.4
	c-3.8,0.7-7.6,0.1-11.4-0.4c-4.4-0.7-7.8-3.9-10.8-7c-0.2,2.4-0.1,4.7,0.1,7.1c-0.5,2.7-1.5,5.6-3.9,7.3c-4.2,3.5-10.6,3.2-15,0.3
	c-1.5-1.5-2.9-3.2-4.3-4.8c-2.3-4.9,0-10.4-1.6-15.5C375.2,215.8,378,209.3,380.4,202.8 M386.4,201c-1,1.1-1.9,2.3-2.4,3.8
	c-1.3,3.7-3,7.3-3.7,11.2c-1.1,2-0.9,4.3-1.1,6.5c0.6,4.5-0.4,9.1,0.9,13.5c1.5,1.6,2.8,3.7,5,4.5c2.7,1.4,6,0.5,8.4-1.2
	c1.2-1,1.3-2.7,1.7-4.2c-0.1-4.6,0.3-9.2-0.5-13.8c1.1-5.7-0.8-11.3-3.5-16.3c-1.1-1.2-2.1-2.5-3-3.8L386.4,201 M405.2,217
	c-1.6,1.2-3.7,2.8-3.4,5.1c0.2,3.4,3,5.8,5.7,7.6c2.5,1.7,5.6,1.8,8.5,2c3.4,0.5,6.5-1.1,9.9-1.3s6.5-1.6,9.8-2.1
	c2.1,0.1,4.3-0.3,6.1-1.3c0.7-1.4,1.3-2.9,1.7-4.4c-0.7-4.8-5.8-6.3-10-6.5c-6.8-0.1-13.6-1.5-20.4-0.9
	C410.4,215.3,407.3,215.1,405.2,217 M350.3,200.4c2.3-1.4,5.3-1.2,7.4,0.6c1.7,1.6,2.1,4,3.3,5.9c2.2,3.5,4,7.3,5.9,11
	c0.6,8.6,1.4,17.3,1.4,26c4.8,0.5,9.6,0.2,14.3,1.5c4.7,1.5,9.9,0.9,14.3,3.4c3.3,1.7,4.3,6,3.4,9.3c-1.1,4.4-5.8,7-10,7.3
	c-4.5,0.1-8.7,2.4-13.3,1.8c-2.9,1-6,1.4-9.1,1.2c-0.8,5.3,0,10.6,0.5,15.9c-0.5,4.7-0.8,9.3-0.9,14c2.2-2.6,4.6-5.2,7.9-6.5
	c-3-2.6-5.2-6.5-4.7-10.5s4.1-6.8,7.1-9c5.9-2.2,12.2-0.6,18.2-1.5c4.1,1.3,8.5,0.3,12.7,0.6c5.2-0.2,10.3,0,15.5,0.6
	c4-0.2,8,0.1,12,0.3c4.7,0.2,9,2.6,11.5,6.5c0.8,2.9,1.9,6.1,0.5,9c-1.3,3.4-4.9,5.3-8.4,5.5c-4.3,0.2-8.6,0.6-12.8,1.3
	c-1.3,4.4-0.8,9-0.8,13.6c1.2,6.6-0.9,13.2-0.1,19.8c-0.1,5.2-1,10.5,0.2,15.6c0.7,4-0.6,8-0.2,12c-0.3,7.1,0.9,14.1,0.1,21.2
	c0.2,1.6,0.2,3.3,0.2,4.9c-0.4,5.7,0.1,11.4-0.4,17.1c-0.3,3.1,0.3,6.2-0.8,9.2c-1,2.8,0.4,5.9-0.6,8.7c-0.8,2.5,0.5,5.1-0.6,7.5
	c-1.1,3-1.4,6.5-3.8,8.8c-1.4,1.7-3.9,2-5.7,0.8c-2.9-1-4-4.1-5.8-6.3c-1.2-3.2-1.8-6.7-2.7-10.1c-1.6-3.7-1.2-7.8-2.3-11.6
	c-0.6-4-1.9-7.9-1.5-12c0.6-6.8-1.1-13.6-0.6-20.4c-0.8-3.2-0.1-6.6-0.8-9.8c-0.4-2.4,0.3-4.8-0.1-7.2c0.3-3.6,1.2-7.2,0.4-10.7
	c-0.6-2.8,0-5.7-0.6-8.5c-0.6-5.4,1.1-10.7,1-16.1c-0.3-2.6-1.3-5.2-0.8-7.8c0.8-3.2-1.1-6.5,0-9.8c0.6-2.6,0.7-5.2,0.3-7.8
	c-4.7-0.3-9.3,0.6-14,0.2c1.3,1.9,2.4,3.9,3.2,6.1c1,3.7-0.5,7.5,0.1,11.3c0.5,2.7,0.7,5.5,0.4,8.3c-0.8,5.7,0.3,11.4,1,17
	c0.8,15.3,1.5,30.5,1.9,45.8c0.2,3.3,0.8,6.7,0.5,10c0.7,3.8,0.7,7.6-0.1,11.4c-0.1,3.4,0.9,7.4-1.5,10.2c-1.7,2.5-5.2,2.2-7.7,1.1
	c-2.1-0.9-3.2-3-4.3-4.8c-2.2-3.6-2-8-3.6-11.9c-2.2-6.1-2.7-12.6-4.1-18.8s-1.5-12.9-2.9-19.2c-0.2-2.8-0.5-5.5-1.1-8.2
	c-0.1-5.1-0.2-10.2-1.2-15.2c0.1,4.5-1,8.9-0.1,13.4c-0.2,5.7,1.2,11.5-0.1,17.2c-0.8,2.8,0.6,5.6,0.2,8.5c-0.6,5.2,1,10.4,0.3,15.6
	c0.6,4.5-0.4,9-0.8,13.4c0.4,5.8-2.2,11.3-2.6,17c-0.2,1.9-0.3,3.9-1.2,5.7c-2,3.6-0.4,8-2.5,11.5c-2.1,4.8-9.4,5.7-12.5,1.3
	c-1.7-3.8-2.8-8-3.1-12.2c-1.1-3.7-2.3-7.5-2.2-11.4c0.7-5.2-1.2-10.3-0.8-15.5c0.4-8.7,0.3-17.5,0.7-26.2c0.2-1.5-0.4-2.9-0.6-4.3
	c0.3-5.9,1.3-12,0.2-17.9c-1.3,5.9-0.7,12.1-1.8,18.1c-0.5,2.5,0.1,5,0,7.5c-0.4,5-0.4,10-1.9,14.8c-1,5.8-3,11.3-5.8,16.4
	c-1.7,2.6-4.6,4.9-7.8,4.6c-1.9-0.6-3.9-1.6-5-3.4c-1.9-2.4-1.3-5.6-1.8-8.5c0.1-4.6-0.6-9.2,0.4-13.7c0.8-3.4,0.1-6.9,0.7-10.4
	c0.7-4.2-0.2-8.4-0.1-12.6c-0.4-4.4,0.7-8.9,0-13.3c-0.3-2.6-1-5.2-0.4-7.9c1.4-7.9,0-16,1.1-24c0-2.6-0.7-5.2-0.1-7.8
	c-0.1-5.1,0.4-10.2,1.6-15.1c1.7-4.2,5.4-8.4,10.2-8.7c4,0,7.8,1.8,10.5,4.7c0.1-6.1-0.2-12.2,0.1-18.3c0.8-3.5-0.6-7-0.2-10.6
	c-5.3-0.2-10.6-1.2-16-1.2c-1.6,0-3.2-0.5-4.8-0.6c3.2,3.3,2,8.1,2.2,12.3c0.2,3.4-1.1,6.5-1.7,9.8c-0.5,2.4-1.2,4.8-2,7.2
	c-1.1,3.4-0.5,7.5-3,10.4c-2.3,3.9-4.2,8.4-4,13c0.6,2,1.4,4.1,0.9,6.2c-0.5,2.7,1.3,5.3,0.3,8c-1.3,3.9-0.2,8-0.8,11.9
	c-0.5,3.1,0.5,6.4-0.1,9.5c-0.8,2.4,0.4,4.9,0.4,7.4c-0.3,7.6-1.2,15.1-0.8,22.8c0.6,3.2,1,6.6-0.1,9.8c-1.7,5.2,0,10.9-1.9,16
	c0.7,1.9,0.5,3.9-0.4,5.7c-1.3,3.2-0.1,6.8-1.8,9.9c-1.8,3.3-2.4,7.9-6.3,9.5c-2.5,1.3-5.2-0.2-7.3-1.5c-2-1.6-3.1-4-3-6.5
	c0-4.7-1-9.4-0.6-14.1c-0.6-3.7,0.3-7.4-0.7-11c-1-3.4,0.6-6.8,0-10.2c-0.9-5.7-0.6-11.6,0.9-17.2c-0.4-3.4-0.5-6.9-0.1-10.4
	c-0.2-2.8-0.8-5.5-0.1-8.3c0.9-3.3-0.4-6.6,0.1-9.9c0.3-1.2,0.4-2.4,0.3-3.7c-0.7-4.2,0.2-8.4,0.3-12.6c-5.8,2.1-11.9,3.4-18.1,3.8
	c-3.1,0.3-6.1-0.5-8.7-2.2c-2.9-2.4-2.5-7.1,0.2-9.5c2.5-2.8,6-4.3,8.9-6.6c2.5-2,5.2-3.8,7.6-5.9c1.5-1.5,3.7-2,5.3-3.3
	c2.5-2.6,3.6-6.1,5.5-9.2c3.5-4.8,2.9-11.1,4.6-16.5c1.4-3.9,0.9-8.3,2.6-12.2c-1.5,1.5-2.9,3.3-5,4c-4.9,1.8-10.1,3.2-15.4,2.6
	c-4.3-0.7-8.9,1.7-13-0.5c-2.8-1.3-4.8-4.8-3.5-7.8c0.4-1.2,0.9-2.2,1.6-3.2c3.6-2.6,8-4.1,11.4-7c2.6-1.9,5.6-3.4,7.1-6.3
	c1.1-2.4,4.3-2.7,5.4-5.1c1.5-2.6,2.9-5.2,4.2-7.9c2.1-3.1,3.5-6.6,3.9-10.4c0.1-1,0.5-2,1-3c0-5.1,0.5-10.3,2.8-14.8
	c1.4-1.8,3-3.5,4.8-5c3-1.3,6.8-3,9.9-1.1c3.1,1.2,5.7,3.4,7.4,6.3c2,5,0.7,10.3-0.4,15.4c0.2,4.6-1.4,8.9-2,13.4
	c-1.4,4.9-4.9,8.9-6.6,13.7c3.1-1.1,5.5-4,9-4.3c1.8-0.1,3.2-1.3,5-1.5c3.3-0.4,6.6,0.3,9.9,0.5c1.7-0.2,3.4-0.8,5.1-1.1
	c0.1-5.4-0.2-10.8,0.2-16.2c-0.5-6.2-0.2-12.4,1-18.5c1-3.7,3-6.9,5.9-9.5 M352.5,204.3c-2.5,2.9-4.1,6.5-4.4,10.3
	c-1.2,6,0.3,12-0.5,18c-0.4,5.1,1.4,10.6-1,15.4c-1.9,1-4.2,0.8-6,1.9c-4,0.4-8-1-12-0.3c-1.7,0.7-3.2,1.7-5.1,1.5
	c-2.7,1.4-5.3,3-8,4.4c-1.6,1.8,0.5,4.1,2.2,4.9c2.2,1.3,4.8,1,7.2,1.2c2,0.7,4.2,0.3,6.3,0.6c5.2,0.7,10.5,1,15.7,1.4
	c1,2.8-0.1,5.7,0.6,8.6c0.5,5-0.6,10-0.2,15c0.1,4-0.5,8,0.4,12c-0.2,6.1,0.5,12.3-0.5,18.3c0.7,4.9,0.9,9.8,0.6,14.7
	c-0.5,4.7,0.2,9.5-0.5,14.3c-0.2,2.6-0.2,5.1,0,7.7c1,2.8,0,5.7,0.3,8.6c0.3,3.4-0.8,6.8-0.3,10.3c0.7,3.9,0.1,7.9,0.3,11.9
	c-1,4.7-0.1,9.6-0.4,14.4c-0.5,4.6-0.3,9.2,0.8,13.7c0.1,2.5-0.2,5.1-0.2,7.6c0,3.6,2.2,6.8,2.3,10.5c0.1,3.2,1.3,6.1,2.1,9.1
	c1,0.6,2.1,1.8,3.3,1.1c1.9-0.5,2.5-2.5,3-4.2c-0.2-3.5,0.5-7.1,2.2-10.2c0.2-6.9,3.3-13.3,2.9-20.2c0.2-2,0.5-3.9,0.9-5.9
	c0.3-3.6-0.1-7.2,0.3-10.7c-0.4-3.4-0.5-6.9-0.4-10.4c-0.1-1.8,0.3-3.6-0.5-5.3c-0.4-4.2,1.2-8.2,0.7-12.4c-0.5-3.5,0-7-0.6-10.5
	c-0.6-5.5,0.7-10.8,0.6-16.3c0.5-5.5-1.1-10.8-0.6-16.3c0.5-4.2,0.5-8.4,0-12.6c-0.3-7.3-0.1-14.7,0.6-22
	c-0.7-5.2-0.9-10.4-0.6-15.7c0.3-1.5,0.2-3.7,2.1-4.2c2.6-0.3,5.3,0.3,7.9-0.6c1.4-0.5,2.9-0.8,4.3-1c3.4,1,6.4-1.2,9.7-1.4
	c2.4-0.2,5-0.2,7-2c2.3-1.2,2.1-4.5,1-6.4c-3.1-2.1-7.1-2-10.7-2.5c-5.5-2-11.4-2-17.1-2.3c-1.4-0.1-2.7-0.7-3.5-1.9
	c0-9.1-0.6-18.2-1.5-27.2c-2.2-4.9-5.4-9.3-7.4-14.3C354.8,203.8,353.2,203.1,352.5,204.3 M304.8,211.1c-0.4,1.8-1.2,3.5-1.7,5.2
	c-0.4,3.4,0.2,7-1.2,10.3c-0.7,6-3.8,11.2-6.7,16.4c-1.5,2.9-3,6-5.9,7.7c-2,1.1-2.9,3.2-4.5,4.7c-1.8,1.6-4,2.7-5.8,4.2
	c-3.3,2.6-7.1,4.2-10.6,6.5c-0.2,1-1.1,2.1-0.4,3c1.1,1.8,3.6,1.8,5.5,1.5c3.9-0.6,7.8-0.3,11.7-0.3c3.5-0.4,6.8-1.4,9.9-3
	c1.6-1.6,3.4-2.9,5.5-3.9c3.4-1.6,4.6-5.3,6.9-7.8c2-2.3,2.6-5.3,3.8-8c1.5-3.8,4.3-7,5.4-11c0.5-2.5,1.1-4.9,1.6-7.4
	c0.8-3.2,0.2-6.7,1.3-9.9c1-2.8,0.6-5.8,0.2-8.6c-1-1.1-1.9-2.1-2.9-3.2c-1.3-0.6-2.6-1.1-3.9-1.8C309.6,206,306.5,208,304.8,211.1
	 M308.4,261.4c1.2-0.1,2.5-0.3,3.7-0.3c-0.5-0.9-1-1.8-1.4-2.7C309.9,259.4,309.1,260.4,308.4,261.4 M303.7,273.4
	c-0.2,3.1-0.8,6.1-1.8,9.1c-1.4,5.3-1.2,11.2-4.5,15.8c-2.1,3.4-3.3,7.3-6.2,10.2c-1.5,1.6-3.8,2.2-5.5,3.5
	c-3.8,3.3-7.9,6.3-12.1,9.1c-1.9,1.1-3.7,2.5-5.1,4.2c-0.6,0.7-0.6,1.8,0.1,2.4c0.1,0.1,0.2,0.2,0.3,0.2c3.5,2.1,7.6,0.8,11.4,0.4
	c4.8-1,10-1.8,14-4.9l2.1-0.1c0.5,4.4,0.4,8.8-0.1,13.1c-0.4,3,0.7,5.9,0,8.8c-1,3.4,1.2,6.9,0,10.3c-0.6,2.3-0.7,4.7-0.3,7
	c0.4,3.3-0.6,6.6,0.1,9.8c0.7,3.6-1.1,7.1-1.1,10.7c-0.5,4.7,1.3,9.4,0.3,14c-0.6,3.1,1,6.1,0.6,9.3c-0.4,3.3,0.5,6.6,0,9.9
	c0.7,3.7,0.5,7.5,0.8,11.2c0.1,2,2.1,3.3,3.9,3.6c1.4,0,2.1-1.3,2.5-2.4c1-3,3.1-5.6,2.9-8.9c0-2.7,0.5-5.4,1.5-7.9
	c-0.4-0.9-0.8-1.7-1.2-2.6c2.8-3.4,1.5-8.1,1.8-12.1c0.4-2.5,1-5,1.6-7.5c-0.7-6-1.3-12.1-0.2-18c0.3-2.6-0.5-5.2,0.2-7.8
	c0.8-4.2-1.5-8.5,0.1-12.7c-0.6-5.2,0.2-10.4-0.2-15.6c0.2-1.8,0.5-3.5,1.1-5.2c-0.5-2.9-0.7-5.9-0.6-8.9c-0.4-1-1.1-1.8-1-2.9
	c-0.2-6.2,2.3-12.1,5.4-17.3c1.1-2.7,0.9-5.7,1.9-8.5c1.6-4.4,2.3-9.1,3.6-13.6c0-2.9,0.1-5.8,0-8.6c-1.2-3.4-4.5-5.7-8.1-5.6
	C307.8,265.1,304,269.1,303.7,273.4 M380.4,275.9c-2.5,1.7-6.2,4-5.1,7.6c0.2,2.4,2.3,3.8,3.6,5.5c2.5,1.4,5.2,2.7,8.1,2.6
	c6,0.1,11.9-0.7,17.8-0.6c3,6.2-0.4,12.9,0.9,19.2c0.1,2.2-0.7,4.5,0,6.7c1.5,4.9,0,10.1-0.5,15c0.4,4.4,0,8.9,0.8,13.2
	s-0.7,8.7-0.3,13.1c-0.6,4,0.9,7.9,0.2,11.9h0.3c0.1,2.4,0,4.9,0.2,7.3c0.2,2,0.3,4,0.3,6c0.7,4.9,0,9.9,0.4,14.8
	c0.7,3.2,1.2,6.6,2,9.8c0,2.1,0.3,4.2,0.8,6.3c1.6,3.3,1.7,7.1,2.8,10.6c1.1,1.2,2,2.5,2.7,4l2.1,1c1.5-2,1.8-4.6,2.7-6.9
	c1.1-2.3-0.4-4.8,0.5-7.1c0.8-1.7,0.4-3.5,0-5.3c0.5-3.4,1.6-6.7,1.2-10.2c0.6-4.9,0.4-9.9,0.6-14.8c-0.7-2.5,0.6-4.9,0-7.4
	c-0.5-2.2,0.3-4.4,0.3-6.6c-0.1-5-0.7-10-0.5-15c-0.3-5,0.8-10-0.2-14.9c-0.2-4.7-0.1-9.4,0.2-14.2c-1-4.1,0.4-8.2,0.3-12.4
	c0.4-3-0.2-5.9-0.4-8.9c0.1-2.5,0.1-5.1,0.1-7.6c-0.2-2.7,1-5.1,0.8-7.8c5.8-1.6,11.8-1.7,17.7-2.3c1.3-0.3,2.4-1,3.3-2
	c1.4-1.8,0.7-4.3,0-6.2c-1.8-2.5-4.5-4-7.5-4.2c-4.5-0.4-9-0.2-13.6-0.4c-5.2-0.5-10.3-0.7-15.5-0.5c-3.7-0.4-7.6,0.9-11.3-0.5
	C391.1,275.6,385.6,274.6,380.4,275.9 M331.2,296c-2.8,1.5-4.7,4.2-5.2,7.4c-1.3,6.9-1,14-1,21c-0.4,2.4-0.4,4.7-0.1,7.1
	c-0.4,5,0,10-0.7,14.9c-1,4.7,0.8,9.3,0.4,14c-0.4,4.9-0.3,9.9,0.2,14.8c0.4,3.6-0.8,7-0.6,10.6c0.2,4.3-1.4,8.4-1,12.8
	c0.4,3.7,0,7.5,0.6,11.2c0.3,1.5,1.8,2.1,2.8,3c2.2-1,3.9-2.8,4.6-5.2c2.4-4.6,3.2-9.7,4.6-14.6c1.2-6.1,1.6-12.4,1.1-18.6
	c1-7,1-14.1,2.2-21.1c-0.3-6.2,1.5-12.2,1.1-18.4c0.3-6.1,0.2-12.2,0.9-18.3c-0.3-5,0.3-10,0.4-15
	C340.3,297.5,335.4,294.5,331.2,296 M371.4,302.2c-0.6,3.3-0.6,6.8-0.1,10.1c-0.2,8.3,1.4,16.5,1.5,24.7c0.7,5.6,0.8,11.3,1.1,17
	c1,3.2,0.6,6.7,1.5,9.9s0.8,6.6,1.3,9.9c0.3,2.2,0.8,4.4,0.9,6.7h0.1c0.2,1,0.5,1.9,0.8,2.9c0,0.9,0.1,1.7,0.2,2.6
	c1.4,1.8,0.4,4.3,1.4,6.3c0.2,3.7,2.2,7,2.9,10.6c0.5,3,1,6,2.7,8.5c0.7,1.7,2.6,2.6,4.4,2.1c1.5-3,0-6.2,0.8-9.3
	c0.5-2.4,0.9-5.1-0.2-7.4c0.1-3.9,0.4-7.9-0.6-11.8c0-0.6,0.1-1.7,0.2-2.2c-0.1-2.1-0.8-4.2-0.2-6.3c0-1.4,0-2.7,0-4.1l-0.2-0.2
	c-0.4-11.2-0.8-22.5-1.5-33.8c-1.1-5.8-1.4-11.7-0.8-17.5c0.3-1.7,0.3-3.4-0.2-5c-0.8-4.2-0.2-8.4-0.1-12.5c-1.3-3.3-3.4-7.1-7-8.1
	C375.9,295.2,372.3,298.1,371.4,302.2 M171.6,200.8c2.6-1.2,5.3,0.2,7.4,1.7c2.9,2.3,3.3,6.3,3.4,9.7c2.2,3.6,1.7,8,3.5,11.8
	c3.7-0.1,7.5,0.1,11.2,0.6c3.3,0.7,6.5-0.4,9.8-0.2c2.4-0.1,4.7,0.3,7,0.4c4.7-0.6,9.4,0.6,14.2,0.4c1.4-3.2,1.2-6.8,2.4-10
	c1.6-3.7,5.6-5.7,9.6-5.6c3.8-0.4,7.2,2.3,9.2,5.3c0.8,2.3,1.4,4.7,1.7,7.2c-0.3,3.5-0.3,7.1,0,10.6c0.5,2.6,1.4,5.1,1.4,7.8
	c-0.5,5.9,1.1,11.8,0,17.7c1,5.4-0.6,10.8,0.3,16.2c0,5.4-1.6,10.7-4.6,15.2c-2.7,3.2-5.8,6-9.3,8.2c-4.3,1.6-8.9,2.4-13.4,2.3
	c0.2,1,0.4,2,0.6,3c1.9,1.4,3.7,3.3,6.1,4c2.9,1,5.3,3,7.8,4.8c3.4,3.2,6.3,6.9,10,9.9c2.9,3.7,6,7.5,7.6,12
	c0.5,4.5,1.4,8.9,2.3,13.3c1,10.5,1.1,21.2,1.2,31.8c1.4,3.9,1.1,8,0.6,12c0.6,3.5,0,7.1,1,10.6c0.3,4,0.2,8-0.4,12
	c-1,5.1,0.1,10.6-1.9,15.6c-1.4,3-2.6,6.5-5.8,8.1c-1.9,0.5-4.2,0.9-5.8-0.4c-2-1.4-3.4-3.4-4.2-5.7c-2.2-3.3-3.4-7-3.6-10.9
	c-1.1-4.2-0.1-8.6-1.7-12.6c-2-4-1.4-8.6-2-12.9c-0.7-4.9,0.1-9.8-0.6-14.7c-0.2-3.1,0.2-6.2-0.4-9.3c-0.7-4.2,0-8.5-1-12.7
	c-0.2-3.5-1.2-7.1-0.6-10.6c0.2-3.1,0.8-6.9-1.6-9.3c-2.8-3.1-4.7-7-7.8-9.9c-4.4-1.4-9.1-2-13.1-4.7c-1.8-1.7-3.3-3.7-4.3-6
	c-1.1,3-3.3,5.6-6.2,7c-3,1.6-6.2,2.8-8.7,5.2c-2.3,2.3-4.9,4.3-6.8,6.9c-3,3.3-5.6,7.5-4.8,12.1c-1.5,5.1-2.5,10.3-2.9,15.5
	c0.5,3.6-0.9,7-0.7,10.6c-1.1,3.2-2.2,6.5-2,9.9c-1.1,4.4-2,8.9-1.5,13.4c-0.8,2.8-0.5,5.7-1.4,8.4c-0.6,1.4-0.1,2.8-0.1,4.2
	c-0.3,3.8-0.7,7.6-2.2,11.1c-2.5,4.1-0.7,9.7-4.2,13.4c-1.8,2.6-5.4,2.3-8,1.3c-4.5-2.9-7.5-8.4-6.3-13.8c0.9-3.3-1-6.7,0.1-10
	c0.3-1.1,0.4-2.2,0.3-3.4c-0.1-4.8,1.4-9.4,1-14.2c1.2-5.6-0.3-11.3,1.1-16.8c0.2-3.4,0-6.7,0.1-10.1c0.2-2.4,0.9-4.7,1.2-7.1
	c-4.5,4.5-9.7,8.8-16.1,10c-4.2,0.8-8.5,0.4-12.7,1c-4.8-0.2-9.7,0.2-14.2-1.8c-3.4-1-6.8-2.8-9-5.8c-2.1-3-3.7-6.2-4.8-9.6
	c-0.2-4.3-0.5-8.6-0.8-12.8c0.4-3,1.7-6,1-9.1c-1-6.2,2.2-12.3,1-18.5c-0.4-3-1.5-6-1.2-9.1c0.2-3.3-0.4-6.6-0.7-9.8
	c-0.8-5.4,0.5-10.9-0.2-16.4c-0.5-2.1,0.2-4.2,0.2-6.3c0.2-3.3-1.7-6.5-0.8-9.8c0-5.1-1.3-10.9,1.7-15.5c1.9-3.4,6.2-4.5,9.8-4.4
	c4.7,1,9.6,3.1,12,7.6c3,5.5,1.6,11.9,2.1,17.9c0.6,3-0.4,6-0.1,9.1c3.8,0.5,7.6-0.1,11.4,0c-0.5-2.1-1.2-4.3-0.5-6.5
	c0.8-2.3,0.7-5.1,2.6-6.9c1.5-1.7,3.4-2.9,5.6-3.5c4.5-0.2,9.3,0.5,12.8,3.5c4.7,3.4,6.9,9.2,5.6,14.8c-1.2,6.9-1.2,13.9-2.4,20.8
	c-1,3.8-1.4,7.8-1.1,11.8c0.5,1.2,1.7,2.2,1.9,3.5c0.7,5.9-0.8,11.8-0.5,17.7c1.8-3.7,3.9-7.3,6.4-10.6c3.2-3.4,6.5-6.7,9.8-10
	c2.8-2.9,6.5-4.6,9.5-7.3c0-1.8,0-3.5,0-5.2c-3.5,0.2-6.9-0.8-9.8-2.8c-3.1-2-5.8-4.5-8.2-7.3c-2.5-5.2-4.6-11.1-4.1-16.9
	c-0.5-3.5,0.2-7.1-0.6-10.6c0.7-6.3,1-12.7,0.8-19.1c-0.1-1.4-0.6-2.9-0.3-4.3c0.7-3.3,0.1-6.6,0.6-9.9c0.4-2.6-1.1-5.2-0.5-7.9
	c0.6-4,0.6-8.1,1.5-12C163.7,204.8,167.2,201.3,171.6,200.8 M170.1,205.6c-0.8,0.7-1.5,1.6-2.2,2.5c-1.2,4.8-1.4,9.8-1.9,14.7
	c1.1,6.6-0.5,13.2,0.1,19.8c0,6,0.3,12.1-0.6,18.1c0,5.3,0.8,10.7,0.4,16c1.2,4.7,2,10.1,5.9,13.4c2.7,2,5.3,4.8,8.8,5.4
	c1.9,0.6,3.9,0.2,5.8,0.5c1.2,0,1.5,1.2,1.5,2.2c0.1,2.7,0.1,5.4,0,8.1c-0.4,1.7-1.9,2.9-3.3,3.8c-2.8,1.7-5.5,3.8-7.9,6.1
	c-4.6,4.6-9.6,9.1-12.7,14.9c-2,2.8-2.6,6.2-2.8,9.5c-0.1,3.6-1.3,7.1-1.1,10.7c0.1,2.6-0.8,5.3,0,7.9c-0.3,3-0.8,6-1.3,9
	c-0.4,3.9,0,7.8-0.2,11.7c-0.6,1.9-0.8,4-0.5,6c0.6,3.8-0.5,7.5-0.5,11.3c0,3.6-0.7,7.1-1,10.7c0.1,2.3,0.3,4.8-0.6,7
	c0.4,2.5,0.5,4.9,0.5,7.4c-1.3,3.7,0.6,7.6,3.4,10c1.1,0.9,2.7,0.8,3.6-0.3c0-0.1,0.1-0.1,0.1-0.2c1.6-2.7,1.2-6.1,2-9.1
	c2.4-4.3,3.7-9.6,2.6-14.5c0.2-1.2,0.5-2.4,0.8-3.5c1.8-6.6,0.4-13.5,2.6-20c-0.2-3.7,0.9-7.2,2-10.7c-0.1-3.3,1.3-6.5,0.7-9.9
	c0.6-4.8,0.9-9.6,2.4-14.2c0.7-2-0.1-4.2,0.6-6.2c2-7.6,8.1-13,13.7-18.1c3.4-3.2,8.5-3.9,11.6-7.4c1.7-1.9,1.8-4.5,2.4-6.9
	c-0.7-3.1-0.1-6.3-0.3-9.4c0.1-1.8-0.5-3.9,0.8-5.4c0.8-1.1,2.3-1.2,3.5-1.6c0.6,0.7,1.6,1.4,1.4,2.5c0.2,3.7,1,7.5-0.1,11.2
	c0.1,0.9,0.2,1.9,0.1,2.8c0.6,2.3,1.4,4.5,2.5,6.5c0.6,0.7,1.2,1.4,1.8,2.1c3.8,2.3,8.3,2.8,12.4,4.2c1,0.3,1.6,1.3,2.2,2
	c2.8,3.5,5.2,7.2,8.1,10.7c2,3.7,1.6,8.1,1.1,12.1c-0.3,5.1,1.3,10.1,1,15.1c-0.1,3.3,0.8,6.6,0.7,9.9c0.1,2.3-0.4,4.8,0.7,7
	c-0.9,6.7,0,13.4,0.8,20.1c-0.1,1.9,0.3,3.8,1.4,5.4c1.3,3.6,0.7,7.5,1.6,11.2c0.2,1.5,0.3,2.9,0.4,4.4c0.4,3.6,2.9,6.3,4.2,9.5
	c0.5,1.3,1.8,2.1,3.2,1.8c2.2-1.5,3.1-4.2,3.9-6.6c1.4-3.4,0.8-7,1-10.6c1.1-6,1.2-12.1,0.1-18.1c0.4-3.3-0.5-6.6,0-9.8
	c0.3-2.9,0-5.8-0.9-8.5c-0.3-5.4,0.5-10.9-0.5-16.2c-0.1-6.8-0.1-13.6-1.7-20.2c-0.6-2.9-0.8-5.8-1.4-8.6c-1.1-3.2-3.4-5.9-5.4-8.6
	c-1.6-2.4-4.2-3.9-6-6.1c-3.4-4.2-7.8-7.4-12.7-9.4c-2.1-1.2-4.2-2.7-6-4.3c-2.3-3-1.7-7.1-1.8-10.7c5.2,0.8,10.6,0.3,15.5-1.5
	c3.4-2.5,6.8-5.2,8.9-9c1.8-2.5,1.9-5.7,2.6-8.6c0.6-1.9-0.4-3.7-0.3-5.6c-0.1-2.6,0.4-5.2,0.4-7.8c-0.8-6.2,0.8-12.4-0.6-18.6
	c0.5-3.2,0.2-6.6-0.8-9.7c-0.8-3.7-0.9-7.6-0.4-11.4c0-3.6-1-8.1-4.9-9.4c-2.4-0.3-5.6-0.1-7,2.2c-1.5,2.1-1.1,5-1.8,7.4
	c-0.6,1.8-1,3.6-1.5,5.4c-4.2,1-8.6,0.2-12.9,0c-2.5-0.3-5,0.4-7.6-0.1c-3.8-0.6-7.6,0-11.3,0.4c-2.8-0.3-5.7-0.7-8.6-1
	c-2.8-0.3-5.5,0.8-8.2-0.1c-1.6-3.9-3.2-7.9-3.5-12c-2.6-1.8-0.8-5.6-2-8.2c-0.4-1.9-2.2-2.6-3.8-3.2
	C172.6,205,171.3,205.2,170.1,205.6 M103.5,248.5c-0.9,1.3-1.7,2.7-2.2,4.1c-0.3,4.3,0.7,8.5,0,12.8c0.7,2.6,1,5.3,0.9,8
	c-0.2,6,0.3,11.9-0.2,17.8c0.4,3.9,1.1,7.9,0.9,11.8c-0.2,4.8,1.5,9.4,1.7,14.1c0.4,3.4-1.4,6.6-1,10c-0.5,2.8-0.5,5.7,0.1,8.5
	c-0.3,2.3-1,4.5-1.4,6.8c0.4,1.4,0.6,2.8,0.4,4.2c-0.2,2.3,0.7,4.5,0.4,6.8c1.5,4.1,3.5,8.3,7.2,10.9c5.8,3,12.5,4.1,18.9,3
	c4.6-0.5,9.5,0.3,13.7-2c3.5-2.1,7.5-4.2,9.6-7.9c1.1-3.3,2.5-6.8,1.7-10.3c-1-6.2,0.9-12.6-0.5-18.9c1.2-4,1-8.3,0.8-12.4
	c-0.6-0.5-1.2-1-1.9-1.5c0.4-2.9-0.6-5.7-0.1-8.5c0.3-2.9,0.8-5.8,1.5-8.6c0.3-4,0.9-8.1,0.9-12.2c0.6-3,0.9-6,1.3-9.1
	c0.3-2.1-0.9-4-1.7-5.9c-0.5-0.6-1.1-1.1-1.7-1.6c-2.7-2.9-6.7-3.7-10.5-3.6c-1.5,0.4-2.5,1.6-3.5,2.5c-0.4,1.9-0.9,3.8-1.5,5.7
	c0.6,2.3,1.1,4.9,0.1,7.1c-2.4,2.5-6.2,1.2-9.3,1.8c-3.1,0.1-6.2,0-9.3-0.3c-0.1-1-0.1-2.1-0.2-3.1c-0.5-3.7,0.4-7.3-0.2-11
	c-0.3-4.8,0.7-9.9-1.2-14.5c-1.7-3.7-5.8-5.2-9.5-5.9C106.3,247.3,104.8,247.7,103.5,248.5 M528,206.5c0.8-2.8,3-5.1,5.9-6
	c3.9-0.2,8.1,0.7,10.8,3.6c1.6,1.7,3.1,3.6,4.3,5.6c1.6,2.5,1,5.6,1.7,8.4c1.1,2,1.9,4.1,2.2,6.4c2.9-0.1,5.7,0.7,8.6,0.2
	c4.4-0.3,8.9-0.3,13.3,0.2c4.7-0.2,9.6-0.9,14.2,0.2c3-0.2,6.1,0.3,9.1-0.3c4.4-0.9,8.8,0.5,13.2,0c1.9-0.4,2.5-2.4,3.2-4
	c1.3-3.6,2.2-7.7,5.1-10.5c2.3-1.7,5.5-1.3,7.9,0c5.1,3.2,7.8,9.4,8,15.3c0.7,4,0.3,8,0.8,12.1c-1.2,6-1,12.2-1.1,18.3
	c-0.8,3.5-0.1,7,0,10.5c-0.6,3.6,0.5,7.1,0.1,10.7c-0.5,4-0.2,8-0.4,12c0.5,2.3,0.6,4.6,0.3,7c-0.6,4.2-0.1,8.5,0,12.7
	c-2.2,7.4-0.1,15.1,0.1,22.6c-0.6,3.3-0.2,6.6-0.1,9.8c-1.1,5.2,0.1,10.6-1.5,15.7c-1.2,2.8-3.3,5.1-5.2,7.5
	c-3.3,2.6-6.6,5.6-10.8,6.8c-13,1.7-26.2-0.8-39.2,1c-4.2-1.1-8.6-0.7-12.9-0.4c4,1.8,8.4,2.6,12.6,3.9c5.4,2.4,11.2,3.5,16.5,6
	c2.1,1,4.4,1.6,6.5,2.6c5.6,4.1,12,7.6,16.3,13.3c3.9,5.8,8.3,11.6,9.7,18.6c0.8,3.4,1.9,6.8,3.4,10c2.6,4.6-2.3,10.1-6.9,10.5
	c-4.2-0.5-6.8-4.3-8.4-7.9c-2.2-4.9-6.8-7.9-10.3-11.7c-2.5-1.7-4.5-4.2-7.3-5.3c-4.2-1.6-7.2-5.4-11.5-6.8c-4.2-2.1-8.9-3.1-13-5.2
	c-5.8-1.2-11.6-2.7-17.2-4.6c-2.1-0.7-4.3-1.2-6.5-1.4c-4.2-0.9-8.5-1.6-12.7-1c-3.5-1.8-7.6-0.9-11.4-0.7
	c-6.5-0.7-13.2-2.2-18.3-6.4c-3.1-2.6-4.6-6.4-6-10c-1.2-4.1-2.4-8.3-1.9-12.7c-0.4-4.5,1.2-8.9,0.4-13.4c0.6-4.1,0-9.7-4.3-11.6
	c-2.6-1.7-5.9-0.9-8.8-1.3c-0.7,3.2-1,6.5-1.6,9.7c-2,6.6-2.3,13.5-3.3,20.2c-0.3,7.1-1,14.1-1.4,21.1c-0.3,4.5-2.1,8.8-2,13.4
	c-2.1,11-4.8,21.8-7.9,32.5c-0.7,3.2-4,5.9-7.4,5c-3.2-1.3-5.4-4.2-5.9-7.6c-0.6-4.1-1.8-8.1-1.4-12.3c0.4-3.8-1.4-7.5-0.6-11.3
	c0.8-3.3-0.6-6.6,0.2-9.9c-0.1-4.3-0.4-8.5-0.2-12.8c0.6-2.5,1.7-5.1,1.2-7.7c-0.4-4.2-0.1-8.5,0.8-12.7c0-4.8,1.5-9.4,2.8-14
	c0.8-2.6,0.4-5.4,1.1-8c1-2.1,1.7-4.3,2.2-6.5c-5.1-0.4-9.9-2.2-14-5.1c-1.8-2-3.5-5.1-1.9-7.8c1.7-4.4,6.6-5.7,10.8-6.4
	c3.3-0.4,6.5-1.6,9.8-2.1c3.1-4.5,1.7-10.7,5.2-15.1c1.6-1.7,1.9-4,3.3-5.8c0.6-1.1,1.1-2.2,1.5-3.4c2-2.9,4.3-5.6,6.7-8.2
	c2.2-2.7,4.3-5.6,7.5-7.2c3.4-1.6,6.4-3.9,8.9-6.8c1.1-2.1,1.8-4.3,2.1-6.7c0.2-4.7,0.1-9.5-0.3-14.2c0-3.5,0.3-7.1-0.5-10.6
	c-3-0.2-6-0.3-8.9-0.6c-2.3,0-4.8,0.7-7-0.3c-3.9-1.6-8.1-0.6-12-2.1c-3.4-1.4-7.3-1.4-10.1-3.9c-2.5-1.9-5.6-4.4-5.1-7.9
	c0.8-3.6,4.2-5.7,7.5-6.8c2.8-1.3,5.9-0.6,8.8-1.5c4.7-1.4,9.6-1.9,14.4-1.3c4.8,0.4,9.3-1.8,14.2-1.4c6.6,0.2,13.9,2.4,17.6,8.2
	c2.6,5.1,6.7,10,6,16.1c-0.4,2.4,0.5,4.9,0.1,7.3c0,1.5,0.2,3,0.6,4.5c1.3-3.2-0.2-6.6,0.5-9.8c-0.4-3.9-0.9-7.9-0.4-11.8
	c0.4-2.9-0.4-5.7-0.4-8.6C527.4,213.5,528.2,210,528,206.5 M532.1,207.4c0.2,3.4-0.6,6.9-0.2,10.3c0.8,6.3-0.3,12.7,0.6,19
	c-0.1,4,0.4,8.1-0.5,12c0.3,4.7,0.3,9.5-0.1,14.3c-0.3,3,0.5,6.1,0,9.1c-0.6,3.8,0.4,7.5,0.2,11.3c-0.2,3.6,0.5,7.1,0.8,10.6
	c0.6,3.5,0.1,7.1,0.7,10.6c0,5.5-0.3,10.9-1,16.4c0.7,2,0.5,4.1-0.6,5.9c-0.3,6.9,0.2,13.8,0,20.8c0.7,4.1,2.4,7.9,3.9,11.7
	c3,3.7,7,6.5,11.6,8c2.3,0.4,4.6-0.7,6.9-0.2s4.4,0.2,6.6,0.5c3,0.5,6-0.6,9.1-0.2s6-0.7,8.8,0.5c3.4,0.1,6.8-0.9,10.2-0.6
	c6.7-0.3,13.5,1,20.1,0c3.3,0.2,6.8,0.6,9.7-1.1c4.3-2.5,8.4-5.8,10.6-10.4c1.5-4,0.6-8.2,1.1-12.3c0.6-4.1-0.2-8.2,0.4-12.3
	c-0.2-7.7-2.2-15.6,0.2-23.1c-0.9-4.7-0.3-9.5,0-14.2c0.2-1.8-0.7-3.5-0.7-5.2c0.6-3.7-0.1-7.4,0.6-11.1c0.6-4-0.9-8,0-11.9
	c-0.6-3.5-0.6-7,0-10.5c0.2-4.8-0.2-9.5,0.5-14.2c0.7-3.5,0.2-7,0.2-10.6c-0.5-4.2-0.2-8.8-2.6-12.5c-1.5-2.3-3.7-5.2-6.9-4.5
	c-2.8,4.3-3,10.1-6.7,13.9c-2.8,2.7-6.9,1.5-10.4,1.6c-4-0.8-7.9,0.6-11.9,0.4c-1.7-0.1-3.4,0.1-5,0c-4.8-1.5-9.9,0.1-14.8-0.3
	c-3.3-0.3-6.6-0.5-9.9-0.3c-4.8,0.9-9.8,0.2-14.5-0.8c0.1-2.4-0.5-4.7-1.6-6.9c-1.7-3.1-0.5-7.1-2.5-10.1c-1.7-2.3-3.6-4.8-6.3-5.9
	c-1.2-0.1-2.5-0.3-3.7-0.4C533.8,205.4,532.8,206.3,532.1,207.4 M497.1,216c-3.9,0.7-7.9,0.8-11.9,0.4c-4.9-0.4-9.4,2-14.3,2.1
	c-3.3,0.1-6.3,1.7-8.4,4.2c1,1.2,2,2.3,3.1,3.4c1.2,1,2.6,1.8,4.1,2.1c3.1,0.6,6,1.6,9,2.3c3.4,0,6.7,0.6,9.9,1.8
	c4.2-0.8,8.5,0.1,12.7,0.2c1.2,0.2,2.9-0.2,3.6,1.1c2,4.3,1.6,9.1,1.4,13.7c0.7,3.9,0.4,7.8,0.3,11.7c0,3.3-0.6,6.6-1.8,9.6
	c-1.1,2.9-3.7,4.8-5.9,6.8c-1.3,0.9-2.6,1.7-3.9,2.4c-2.2,1-4.1,2.5-5.7,4.4c-2.6,3.5-5.9,6.3-8.1,10c-1.7,3.6-3.3,7.4-5.7,10.5
	c-1.8,2.6-1.3,5.8-2.3,8.7c-0.7,2.2-1.2,4.7-3,6.4c-1.2,1.1-2.9,0.9-4.4,1.5c-4.1,1.4-8.5,1.5-12.5,3c-1.6,0.6-2.4,2.1-3.2,3.6
	c1.4,3,4.7,3.9,7.5,5.1c2.8,1.1,6,0.5,8.6,2.1c1,3.8-0.2,7.7-1.9,11.1c-0.5,3.4-0.5,6.8-1.6,10c-2.3,5.2-1.9,11-3,16.5
	c-0.6,3.3,0.4,6.6,0.1,10c-0.3,1.9-0.7,3.8-1.1,5.6c0.7,2.1-0.4,4.2,0,6.4c0.5,3.6-0.4,7.1,0.1,10.7c0.1,2.1,0,4.3-0.3,6.4
	c1.3,5.6,0.1,11.5,1.5,17.1c0.5,3.1,0.7,7.2,4.4,8.1c2.3-3.3,2.8-7.4,3.9-11.2c1.8-7.8,3.9-15.4,5.4-23.2c0.1-2.6,0.4-5.2,1-7.7
	c1.4-4.9,1-10,1.7-14.9c0.2-7.2,0.8-14.4,1.9-21.6c0.6-2.7,0.4-5.6,1.4-8.2c1.3-4,1.5-8.1,2.3-12.2c0.3-1.8,1.8-3.2,3.6-3.3
	c3.5-0.1,7.1-0.1,10.5,1c2.3,1.2,4.3,2.9,5.8,5c0.8,2.4,1.9,4.9,1.7,7.5c-0.2,3.5,0.3,7.1-0.3,10.6c-1.3,8.1,0.2,16.3,4.1,23.4
	c3.5,5,9.9,6.5,15.5,7.6c3.6,0.3,7.1-0.2,10.7-0.1c1.7-0.1,3.1,1,4.8,0.9c5.1-0.1,10,1.2,15,1.7c3.7,0.8,7.2,2.9,11.1,2.7l-0.7,0.4
	c3.3,0.8,6.5,2,10,2.3c1.2,0.1,2.1,1,3.1,1.6c2.2,0.7,4.3,1.4,6.5,2.1c2.2,1.5,5,1.9,7.3,3.4c1.3,0.7,2.5,1.8,3.9,2.1l-0.6,0.1
	c2.7,2.5,6.5,3.2,9.2,5.7c0.7,0.5,1.2,1.4,2.1,1.5c3.3,3.2,6.8,6.2,9.8,9.6c3.4,3.1,3.7,8.8,8.2,10.6c1-0.4,2-1,2.8-1.6l0.5-1.9
	c-0.8-1.8-1.5-3.5-2.3-5.2c-1.1-4-2.1-8-3.4-11.9H621c-1.7-4-3.9-7.7-6.6-11.1c-1.6-2.3-3.6-4.3-5.9-5.9c-2.2-1.5-4.1-3.5-6.5-4.6
	c-1.3-1-2.7-1.9-4.1-2.7c-5.1-1.8-9.9-4.4-15.2-5.4l-0.5,0.1l0-0.4c-5.6-2.8-11.9-3.5-17.6-5.9c-6.1-1.1-12.2-2.5-18.4-3.4
	c-3.1,0.1-6.1-0.9-9.2-1.2c-4,0.7-8,0.4-12,0c-1.2-0.1-2.4-0.5-3.5-1c-1.8-2.9-0.3-6.2-1-9.3c-0.7-5.6,1-11.2-0.4-16.7
	c0-6.5-0.4-13.9-5.4-18.7c-2.7-2.4-5.4-5.3-8.9-6.4c-3.3-0.3-6.5-1.6-9.8-1.3c-2.7,0-5.7,1.2-8.1-0.6c0.2-1.9,0.8-3.7,1.9-5.3
	c1.5-2.1,2.1-4.7,3-7.1c1.2-2.8,3.5-4.9,5.3-7.2c2-2.5,4.2-4.7,6.6-6.8c2.5-1.4,4.9-2.7,7.4-4.1c2.7-1.1,3.5-4.1,5-6.4
	c2.2-3.8,4-7.8,5.2-12c1.5-5.1,0.6-10.4,1.7-15.6c0.4-4-1.2-8-0.9-12c-0.3-3.6,0.8-7.4-0.9-10.9c-1.1-0.9-1-2.5-1.8-3.7
	c-1.8-2.8-3.1-6.2-6.1-8.1C509.1,215.4,503,214.6,497.1,216 M526.5,268.6c-1.9,7.2-5.1,13.9-9.5,19.9c-3.3,2.8-7.5,4.2-11,6.7
	c-3,3.1-5.9,6.4-8.6,9.8c-1.8,2.8-2.1,6.2-3.9,9c4.6-0.7,9.1,0.5,13.6,1.4c3.2,0.7,5.6,3.3,8.1,5.3c2.7,2,4.9,4.7,6.4,7.6
	c1.9,4.9,2.8,10.1,2.4,15.4c1.8,6.2-0.7,12.7,0.8,19c0.2,1.5-0.3,3-0.4,4.5c4.4,0.6,8.9,0.6,13.3,0c-6.3-3.8-8.3-11.4-9.8-18
	c0-7.3-0.3-14.6-0.2-21.9c0.8-2,1-4.2,0.5-6.3c1.2-6.5,1.5-13.2,0.8-19.8c0.7-6.2-1.8-12.2-0.9-18.4c0.1-2.6-0.6-5.2-0.7-7.8
	c0.2-2.6,0.8-5.2,0.4-7.8c-0.5-4.4,0.7-8.7,0.2-13.1C527.2,259,527.7,263.9,526.5,268.6 M209.7,246.7c4.2,0,7.8-2.8,12.1-2.9
	c3.1-0.8,6.9-0.3,8.5,2.8c1.9,4.2,2.6,8.9,1.9,13.4c-0.1,3.8-0.8,7.6-0.2,11.4c0.4,1.7-0.6,3.2-1.8,4.3c-2.1,2.4-5.3,4.1-8.5,3.8
	c-4.8-0.6-9.6,0.7-14.1,1.9c-2.3,0.5-4.5-0.4-6.7-1.1c-4-1.2-8.3,0-12.3-1.1c-2-0.6-4.2-1.6-5.1-3.7c-1.8-4.2-0.6-8.8-1.1-13.2
	c-0.3-3.1-0.4-6.3-0.3-9.4c-0.1-2.4,1.2-4.7,3.4-5.9C193.4,244.5,201.7,247,209.7,246.7 M222.3,248c-3.7,0.4-6.9,2.4-10.6,2.9
	c-6.6,0.7-13.1-1-19.7-0.6c-1.9,0.4-4.8,0-5.6,2.2c-0.2,3.1-0.2,6.2,0.2,9.2c0.4,4.1-0.5,8.4,0.7,12.4c3,1.6,6.3,1.5,9.6,1.5
	s6.1,1.5,9.2,1.8c5-0.8,9.9-2.9,15-2.1c2.8,0.7,5.2-1.3,6.6-3.5c-0.7-7.6,2.3-15.6-1.1-22.8C225.9,247.1,223.8,247.7,222.3,248
	 M554.5,245.3c3.7,1,7.6,0.2,11.4,0.7c3.9-0.6,7.8,0.5,11.8-0.1c3.1-0.5,6.1,0.7,9.2,0.4c5.8-1.1,11.8-0.3,17.7-0.5
	c4.1-0.4,7.9,2.8,8.9,6.6c0.8,3.5-0.4,7,0.2,10.5c0.8,6-0.2,12.1-0.5,18.1c0.6,3.9,1,8,0,11.9c0.1,3.4,1,6.8,0.9,10.2
	c0.5,4.5-0.8,9-0.3,13.5c0.3,2.8-0.7,5.6,0,8.3c0.6,3.8-0.2,7.6-0.1,11.4c-0.3,3,0.6,6.1,0,9.1c-2.4,3.8-7,5.5-11.3,5.4
	c-3.8-0.1-7.6-0.1-11.2-0.9c-1.4-0.1-2.8,0.4-4.3,0.3c-6.4-0.2-12.8,0.3-19.1-0.3c-4,0.6-8,0.8-12,0.6c-2.3-0.4-4.4-1.8-6.5-2.7
	c-1.3-0.4-2.2-1.6-2.2-2.9c-0.4-6.4,0.4-12.7,1-19.1c1.5-5.6-0.3-11.2,0.4-16.9c-1.2-4.2,0-8.4,0.4-12.5c-0.5-3.3-1.3-6.6-0.7-9.9
	c0.8-6-0.2-12.1,0.6-18c-0.3-2-0.7-4-1-5.9c0.8-3.3,1.2-6.8,0.9-10.2C548.5,248.9,551.4,246.2,554.5,245.3 M552.9,255.9
	c0.2,3-1.5,6-0.4,9c0.1-3.4,2.1-6.2,4.5-8.4c6.2-3.7,13.6-4.7,20.7-3.8c4.5,0.3,9-0.2,13.4,0.4c3.7-0.4,8-0.7,11.2,1.6
	c4.4,2.6,6.8,7.7,7.4,12.6c-1.1,6.8-0.5,13.8-2,20.6c-0.6,2.1,0.2,4.2,0.2,6.2c0.5,3.8-1.4,7.9,0.7,11.5c1.9,3.5-0.5,7.6,1,11.2
	c-0.1-4.3,0.5-8.5,0.4-12.8c0.2-4.7-1.9-9.5-0.5-14.1c0.8-3.6-1.1-7.1-0.4-10.7c0.6-3.9,0.4-7.9,0.8-11.8c-0.2-3.3-1-6.6-0.3-9.9
	c0.5-2.9-0.6-6.4-3.7-7.1c-4-0.2-8-0.3-11.9-0.3c-3.6-0.2-7.1,1-10.6,0.5c-3-0.4-6.1-0.4-9.1,0c-6.4-0.6-12.7,0-19-0.6
	C552.2,250.3,553,253.7,552.9,255.9 M564.6,257.7c-2.3,0.8-4.8,1.6-6.2,3.6c-1.7,1.7-1.7,4.3-2.3,6.5s0,4.3,0,6.5
	c0.1,3.1-1,6.1-0.5,9.1c0.6,4.8-0.2,9.6,0.6,14.3c0.4,2.8,0.3,5.6-0.2,8.4c0.2,3.7,0.7,7.4,0.3,11c0.3,2.8-0.8,5.5,0,8.3
	c0.2,5.5,3.8,10.4,8.3,13.5c2.9,1.7,6,3.6,9.5,3.3c4.7-1,9.6-0.6,14.3,0.1c3.6,0.1,6.4-2.5,9.4-4.1c2.7-2.1,5.2-4.7,6.3-8
	c1-5.1,1.9-10.4,0.8-15.5c-0.4-2.6,1.1-5.4-0.3-7.9c-2.2-4.5-0.2-9.4-1-14.1c-0.8-4.2,0.9-8.4,1-12.6c0.8-4-0.3-8.2,1.1-12.1
	c-0.8-4.7-3.6-10-8.7-10.7c-2.3-0.8-4.6,0.3-6.9,0.3c-3.7-1.1-7.7-0.2-11.5-0.5C573.9,256.3,569.2,256.6,564.6,257.7 M606.1,335.8
	c-3.5,4.9-8.8,7.9-14.1,10.4c4.8,0,9.6,1,14.4-0.1c1.7-0.6,4.1-1.8,3.4-4c-1.2-5.9,1.2-11.9-0.5-17.7
	C609.2,328.3,608.1,332.3,606.1,335.8 M551.5,344c1.5,0.7,2.9,1.5,4.5,2.1c4.1,0.6,8.3,0,12.4-0.7c-7.9-3-15-9.9-15.9-18.6
	C551.8,332.5,551,338.2,551.5,344 M576.9,345.6v0.7h7.9v-0.7C582.1,345.6,579.5,345.6,576.9,345.6 M674,269.6c1.6-1.8,3.7-3.1,6-4
	c2.6-0.1,5.2-0.6,7.8-0.4c1.2,0.3,1.7,1.5,2.4,2.4c0,2-0.3,4,0.4,5.9c-0.1,1.6-0.1,3.1-0.1,4.7c-0.7,0.9-1.5,1.9-2.7,1.9
	c-3.2,0.3-6.4,0.9-9.6,0.6c-1.6-0.4-3.2-0.7-4.7-1.1C673.4,276.4,673.6,273,674,269.6 M679.3,270.7c-2.1,0.9-1.2,3.8-1.8,5.6
	c3,0.6,6,0,8.9-0.3c-0.3-2.1-0.5-4.3-0.4-6.4C683.8,270,681.3,269.4,679.3,270.7 M707.9,266.2c2.5-1.8,5.5-0.5,8.2-0.6
	c1.3-0.1,2.4,0.8,3.6,1.3c3.1,3.4,3.8,8.3,2.8,12.6c-5.2-0.9-10.1,1.2-15.2,1.2c0-2.9,0.4-5.7,0-8.6
	C707.1,270.2,706.4,267.8,707.9,266.2 M711.1,269.3c0.2,2.3,0.4,4.5,0.7,6.8c2.3-0.5,4.5-0.9,6.8-1.1c-0.1-0.5-0.2-1.6-0.3-2.1
	c-0.5-0.9-1-1.8-1.5-2.7C714.9,270,713,269.7,711.1,269.3 M573.2,275.3c3.1-2.8,7.5-3.7,11.5-2.4c1.7,1.5,3.6,3.2,3.8,5.6
	c0.3,7.5,0.8,15,0.5,22.6c0.4,4.9,1.7,10,0.2,14.8c-0.9,2.6,0,5.8-2.1,7.9c-2,2.2-5.3,1.5-8,1.6c-3.8,0.1-7.9-2.7-8.3-6.6
	c-0.2-1.9-1.8-3.7-1-5.7c1-3,0.6-6.2,0.4-9.4c0.3-2.5,0.4-5.1,0.1-7.7c-0.4-4.8,0.7-9.5,1-14.2C570.6,279.5,571.3,276.9,573.2,275.3
	 M575.5,279.1c0.6,4.7-0.5,9.4-1,14.1c0.3,3.7,0.3,7.5,0,11.2c0.5,3.3,0.4,6.6-0.5,9.9c0.9,2,0.4,4.9,2.6,6.1c2,1.3,4.7,1.1,6.9,0.6
	c1.7-1.3,0.5-3.9,1.3-5.8c1.2-3.3,0.8-6.9,0.4-10.3c-0.8-4.1-0.1-8.3-0.4-12.4s-0.1-8.5-0.3-12.8c-0.1-1.4-1.1-2.4-1.9-3.3
	C580.1,276.4,576.9,276.9,575.5,279.1 M713.9,295.1c2.8-1.1,5.8,0.3,8.4,1.2c0.8,3,0.4,6.1,0.6,9.1c-0.3,3.2-2.7,5.9-5.5,7.2
	c-3.2-0.2-7.7,1.6-9.8-1.7c0.3-4.5-0.9-8.8,0-13.3C709.1,295.9,711.8,295.9,713.9,295.1 M711.6,300.2c-0.3,2.8,0.2,5.6,0.2,8.4
	c1.9-0.2,4.4,0.7,5.7-1.2c2.1-2.1,1.2-5.3,1.3-8C716.3,298.4,713.9,299.5,711.6,300.2 M673.7,297.4c3.6,0,7.1,0.2,10.7-0.3
	c1.8,0.1,4.4-0.6,5.4,1.5c1.6,2.1,1.1,4.9,1.1,7.5c-0.3,2.8,0.2,5.8-0.7,8.5c-5.6,3.4-13.5-0.4-15.8-6.1c0.2-1,0.1-1.9-0.3-2.8
	C673.7,302.9,673.8,300.2,673.7,297.4 M678,301.7c0.1,2.2,0.4,4.3,1,6.4c1.8,2.3,4.5,3.6,7.4,3.6c0-3.5,0.8-7,0.1-10.5
	C683.7,301.4,680.8,301.6,678,301.7 M119.4,304.2c1.4-2.2,2.9-4.7,5.6-5.3c4.2-0.8,9,0.3,11.4,4.1c2,6,1.8,12.4,2,18.7
	c0.3,4.3-1.9,8.5-0.8,12.7c0.8,2.6-0.5,5.2,0.1,7.8c0.4,2.9-1.2,6.6-4.4,7.1c-2.4-0.1-4.6-1.5-7.1-1.6c-2.8,0-4.8-2.5-5.8-5
	c-0.5-2.1-2.3-3.5-3.7-5.1c0.7-5.5-0.5-11.1,1.2-16.4C119.4,315.6,117.6,309.7,119.4,304.2 M124.4,304.2c-2.2,3-1.5,6.9-1.6,10.4
	c0.2,3.8-0.8,7.5-1.6,11.2c-0.2,3.4,0.3,6.7-0.3,10c1.1,1.2,2,2.4,2.9,3.7c0.7,1.3,0.8,3.2,2.4,3.8c2.2,0.3,4.4,0.9,6.6,1.6
	c1.2-2.7,0.3-5.8,0.9-8.6c-1.9-4.9,0.5-9.8,0.6-14.8c-0.4-5.7,0.2-11.7-2-17.1C130.3,302.7,126.4,301.7,124.4,304.2L124.4,304.2z"/>
<path class="st1" d="M576.9,345.6c2.7,0,5.3,0,7.9,0v0.7h-7.9V345.6z"/>
</svg>
